<?xml version="1.0" encoding="utf-8"?>
<!-- Generator: Adobe Illustrator 19.2.1, SVG Export Plug-In . SVG Version: 6.00 Build 0)  -->
<svg version="1.1" id="Layer_1" xmlns="http://www.w3.org/2000/svg" xmlns:xlink="http://www.w3.org/1999/xlink" x="0px" y="0px"
	 viewBox="0 0 174 48" style="enable-background:new 0 0 174 48;" xml:space="preserve">
<style type="text/css">
	.st0{fill:#FFFFFF;}
	.st1{fill:#2A4D8E;}
	.st2{opacity:0.15;fill:#00AAD2;enable-background:new    ;}
	.st3{opacity:0.15;fill:#272B38;enable-background:new    ;}
	.st4{fill:#449BBC;fill-opacity:0;}
	.st5{fill:none;}
	.st6{opacity:0.35;fill:#272B38;enable-background:new    ;}
	.st7{fill:#00AAE6;}
</style>
<title>inplayer-logo</title>
<path class="st0" d="M117.1,17.3c-4.8,0.1-8.5,4.1-8.4,8.9c-0.1,4.8,3.6,8.8,8.4,8.9c2.4,0,4.6-1.1,6.2-2.9v2.5h2.2v-8.6
	C125.7,21.4,121.9,17.4,117.1,17.3z M117.1,32.9c-3.5-0.2-6.3-3.2-6.1-6.7c-0.2-3.4,2.3-6.4,5.7-6.6c3.4-0.2,6.4,2.3,6.6,5.7
	c0,0.3,0,0.6,0,0.9C123.5,29.7,120.7,32.7,117.1,32.9C117.1,32.9,117.1,32.9,117.1,32.9z"/>
<path class="st0" d="M158.5,31.2c-1.1,1.1-2.6,1.7-4.1,1.7c-2.7-0.1-5.1-1.9-5.8-4.5h14c0.2-0.7,0.3-1.5,0.3-2.2
	c0.3-4.6-3.3-8.6-7.9-8.9s-8.6,3.3-8.9,7.9c0,0.3,0,0.7,0,1c-0.1,4.8,3.6,8.8,8.4,8.9c2.9,0,5.5-1.5,7-3.9L158.5,31.2L158.5,31.2z
	 M154.4,19.5c3.5,0.2,6.3,3.1,6.2,6.7h-12.3C148.1,22.6,150.8,19.6,154.4,19.5z"/>
<path class="st0" d="M89.9,17.3c-4.8,0.1-8.5,4.1-8.4,8.9v17.1h2.2V32.2c1.5,1.8,3.8,2.9,6.2,2.9c4.8-0.1,8.5-4.1,8.4-8.9
	C98.4,21.4,94.7,17.4,89.9,17.3z M89.9,32.9c-3.5-0.2-6.3-3.1-6.2-6.7c-0.2-3.4,2.3-6.4,5.7-6.6c3.4-0.2,6.4,2.3,6.6,5.7
	c0,0.3,0,0.6,0,0.9C96.2,29.7,93.4,32.7,89.9,32.9z"/>
<path class="st0" d="M140.6,17.6v9.9c0.3,2.7-1.7,5.2-4.5,5.5c-2.7,0.3-5.2-1.7-5.5-4.5c0-0.3,0-0.7,0-1v-9.9h-2.2v9.9
	c-0.1,4.1,3.1,7.5,7.2,7.6c1.9,0,3.7-0.8,5-2.1v1.4c0.1,3.5-2.6,6.5-6.2,6.7v2.2c4.8-0.1,8.5-4.1,8.4-8.9V17.6H140.6L140.6,17.6z"/>
<rect x="58.8" y="17.6" class="st0" width="2.2" height="17.2"/>
<path class="st0" d="M71.5,17.3c-4.1,0.1-7.3,3.5-7.2,7.6v9.9h2.2v-9.9c-0.3-2.7,1.7-5.2,4.5-5.5c2.7-0.3,5.2,1.7,5.5,4.5
	c0,0.3,0,0.7,0,1v9.9h2.2v-9.9C78.8,20.8,75.6,17.4,71.5,17.3z"/>
<path class="st0" d="M165.6,24.9v9.9h2.2v-9.9c-0.1-2.9,2.1-5.3,5-5.4v-2.2C168.8,17.4,165.5,20.8,165.6,24.9
	C165.6,24.9,165.6,24.9,165.6,24.9z"/>
<path class="st0" d="M107.2,32.9c-2.4-0.1-4.2-2.1-4.1-4.5c0,0,0-0.1,0-0.1l0,0V9h-2.2v19.3l0,0c0,0,0,0.1,0,0.1
	c-0.1,3.6,2.7,6.6,6.3,6.7h0.2v-2.2L107.2,32.9L107.2,32.9z"/>
<polygon class="st0" points="58.8,9.9 62.3,11.9 58.8,14 "/>
<polygon class="st1" points="37.8,3.2 49.8,24 37.8,44.8 13.8,44.8 1.8,24 13.8,3.2 "/>
<polygon class="st2" points="13.8,44.8 25.8,24 13.8,3.2 1.8,24 "/>
<polygon class="st3" points="49.8,24 25.8,24 13.8,44.8 37.8,44.8 "/>
<circle class="st4" cx="25.8" cy="24" r="12"/>
<circle class="st5" cx="25.8" cy="24" r="24"/>
<circle class="st5" cx="25.8" cy="24" r="24"/>
<polygon class="st6" points="34.6,36 19.8,34.4 13.5,25.6 19.8,13.6 34.1,14.6 37.8,24 "/>
<circle class="st4" cx="25.8" cy="24" r="12"/>
<polygon class="st7" points="31.8,34.4 19.8,34.4 13.8,24 19.8,13.6 31.8,13.6 37.8,24 "/>
<polygon class="st0" points="28.8,29.2 19.8,34.4 19.8,24 19.8,13.6 28.8,18.8 37.8,24 "/>
</svg>
