<svg xmlns="http://www.w3.org/2000/svg" viewBox="0 0 174 48"><title>inplayer-logo</title><g style="isolation:isolate"><path d="M117.14,17.27a8.67,8.67,0,0,0-8.4,8.92,8.67,8.67,0,0,0,8.4,8.92,8.17,8.17,0,0,0,6.17-2.87v2.53h2.23V26.19A8.67,8.67,0,0,0,117.14,17.27Zm0,15.61A6.45,6.45,0,0,1,111,26.19a6.19,6.19,0,1,1,12.35,0A6.45,6.45,0,0,1,117.14,32.88Z" style="fill:#2a4d8e"/><path d="M158.49,31.16a5.89,5.89,0,0,1-4.12,1.72,6.24,6.24,0,0,1-5.82-4.46h14a9.45,9.45,0,0,0,.26-2.23,8.42,8.42,0,1,0-16.81,0,8.67,8.67,0,0,0,8.4,8.92,8.28,8.28,0,0,0,7-3.94h-2.85ZM154.37,19.5a6.45,6.45,0,0,1,6.17,6.69H148.19A6.45,6.45,0,0,1,154.37,19.5Z" style="fill:#2a4d8e"/><path d="M89.87,17.27a8.67,8.67,0,0,0-8.4,8.92V43.34h2.23V32.24a8.17,8.17,0,0,0,6.17,2.87,8.67,8.67,0,0,0,8.4-8.92A8.67,8.67,0,0,0,89.87,17.27Zm0,15.61a6.45,6.45,0,0,1-6.17-6.69,6.19,6.19,0,1,1,12.35,0A6.45,6.45,0,0,1,89.87,32.88Z" style="fill:#2a4d8e"/><path d="M140.58,17.61v9.85a5,5,0,1,1-9.95,0V17.61H128.4v9.85a7.43,7.43,0,0,0,7.2,7.64,7,7,0,0,0,5-2.12v1.43a6.45,6.45,0,0,1-6.17,6.69v2.23a8.67,8.67,0,0,0,8.4-8.92V17.61h-2.23Z" style="fill:#2a4d8e"/><rect x="58.75" y="17.61" width="2.23" height="17.15" transform="translate(119.73 52.37) rotate(-180)" style="fill:#2a4d8e"/><path d="M71.52,17.27a7.43,7.43,0,0,0-7.2,7.64v9.85h2.23V24.91a5,5,0,1,1,9.95,0v9.85h2.23V24.91A7.43,7.43,0,0,0,71.52,17.27Z" style="fill:#2a4d8e"/><path d="M165.64,24.91v9.85h2.23V24.91a5.21,5.21,0,0,1,5-5.41V17.27A7.43,7.43,0,0,0,165.64,24.91Z" style="fill:#2a4d8e"/><path d="M107.19,32.88a4.33,4.33,0,0,1-4.12-4.5s0-.06,0-0.09h0V9h-2.23V28.28h0s0,0.06,0,.09a6.55,6.55,0,0,0,6.35,6.73h0.17V32.87h-0.17Z" style="fill:#2a4d8e"/><polygon points="58.75 9.87 62.35 11.95 58.75 14.03 58.75 9.87" style="fill:#2a4d8e"/><polygon points="37.75 3.21 49.75 24 37.75 44.78 13.75 44.78 1.75 24 13.75 3.21 37.75 3.21" style="fill:#2a4d8e"/><polygon points="13.75 44.78 25.75 24 13.75 3.21 1.75 24 13.75 44.78" style="fill:#00aad2;opacity:0.15"/><polygon points="49.75 24 25.75 24 13.75 44.78 37.75 44.78 49.75 24" style="fill:#272b38;opacity:0.15;mix-blend-mode:multiply"/><circle cx="25.75" cy="24" r="12" style="fill:#449bbc;opacity:0"/><circle cx="25.75" cy="24" r="24" style="fill:none"/><circle cx="25.75" cy="24" r="24" style="fill:none"/><polygon points="34.58 36 19.75 34.39 13.53 25.57 19.75 13.61 34.13 14.58 37.75 24 34.58 36" style="fill:#272b38;opacity:0.35000000000000003;mix-blend-mode:multiply"/><circle cx="25.75" cy="24" r="12" style="fill:#449bbc;opacity:0"/><polygon points="31.75 34.39 19.75 34.39 13.75 24 19.75 13.61 31.75 13.61 37.75 24 31.75 34.39" style="fill:#00aae6"/><polygon points="28.75 29.2 19.75 34.39 19.75 24 19.75 13.61 28.75 18.8 37.75 24 28.75 29.2" style="fill:#fff"/></g></svg>