<svg id="Layer_1" data-name="Layer 1" xmlns="http://www.w3.org/2000/svg" viewBox="0 0 80 60"><title>ip</title><line x1="6.79" y1="8.01" x2="6.79" y2="52.7" style="fill:none;stroke:#fff;stroke-miterlimit:10;stroke-width:0.5px"/><line x1="11.8" y1="8.01" x2="11.8" y2="52.7" style="fill:none;stroke:#fff;stroke-miterlimit:10;stroke-width:0.5px"/><line x1="16.81" y1="8.01" x2="16.81" y2="52.7" style="fill:none;stroke:#fff;stroke-miterlimit:10;stroke-width:0.5px"/><line x1="21.82" y1="8.01" x2="21.82" y2="52.7" style="fill:none;stroke:#fff;stroke-miterlimit:10;stroke-width:0.5px"/><line x1="26.83" y1="8.01" x2="26.83" y2="52.7" style="fill:none;stroke:#fff;stroke-miterlimit:10;stroke-width:0.5px"/><line x1="31.79" y1="8.01" x2="31.79" y2="52.7" style="fill:none;stroke:#fff;stroke-miterlimit:10;stroke-width:0.5px"/><line x1="37.36" y1="8.01" x2="37.36" y2="52.7" style="fill:none;stroke:#fff;stroke-miterlimit:10;stroke-width:0.5px"/><line x1="42.37" y1="8.01" x2="42.37" y2="52.7" style="fill:none;stroke:#fff;stroke-miterlimit:10;stroke-width:0.5px"/><line x1="47.38" y1="8.01" x2="47.38" y2="52.7" style="fill:none;stroke:#fff;stroke-miterlimit:10;stroke-width:0.5px"/><line x1="2" y1="48.33" x2="59.98" y2="48.33" style="fill:none;stroke:#fff;stroke-miterlimit:10;stroke-width:0.5px"/><line x1="2" y1="43.32" x2="65.57" y2="43.32" style="fill:none;stroke:#fff;stroke-miterlimit:10;stroke-width:0.5px"/><line x1="2" y1="38.31" x2="65.57" y2="38.31" style="fill:none;stroke:#fff;stroke-miterlimit:10;stroke-width:0.5px"/><line x1="2" y1="33.3" x2="65.57" y2="33.3" style="fill:none;stroke:#fff;stroke-miterlimit:10;stroke-width:0.5px"/><line x1="2" y1="28.29" x2="65.57" y2="28.29" style="fill:none;stroke:#fff;stroke-miterlimit:10;stroke-width:0.5px"/><line x1="2" y1="23.33" x2="65.57" y2="23.33" style="fill:none;stroke:#fff;stroke-miterlimit:10;stroke-width:0.5px"/><line x1="2" y1="17.76" x2="65.57" y2="17.76" style="fill:none;stroke:#fff;stroke-miterlimit:10;stroke-width:0.5px"/><line x1="2" y1="12.75" x2="66.94" y2="12.75" style="fill:none;stroke:#fff;stroke-miterlimit:10;stroke-width:0.5px"/><line x1="52.39" y1="8.01" x2="52.39" y2="52.7" style="fill:none;stroke:#fff;stroke-miterlimit:10;stroke-width:0.5px"/><line x1="57.4" y1="8.01" x2="57.4" y2="52.7" style="fill:none;stroke:#fff;stroke-miterlimit:10;stroke-width:0.5px"/><line x1="62.36" y1="8.01" x2="62.36" y2="46.89" style="fill:none;stroke:#fff;stroke-miterlimit:10;stroke-width:0.5px"/><polygon points="62.53 8.52 62.28 7.52 55.92 7.52 54.95 8.52 62.53 8.52" style="fill:#d4dce8"/><polygon points="62.28 7.52 55.92 7.52 54.95 8.52 62.53 8.52 62.28 7.52" style="fill:#d4dce8"/><path d="M60,48.88c-0.29,1.51.82,2.35,2.12,2.62a2.81,2.81,0,0,0,2.35-.82l0.43-2.86" style="fill:none;stroke:#9aa8c1;stroke-linecap:round;stroke-linejoin:round"/><circle cx="31.79" cy="30.36" r="13.68" style="fill:none;stroke:#fff;stroke-miterlimit:10;stroke-width:0.5px"/><path d="M48.66,30.36A16.87,16.87,0,0,1,31.79,47.23" style="fill:none;stroke:#fff;stroke-miterlimit:10;stroke-width:0.5px"/><line x1="12.7" y1="30.36" x2="50.87" y2="30.36" style="fill:none;stroke:#fff;stroke-miterlimit:10;stroke-width:0.5px"/><ellipse cx="31.79" cy="29.56" rx="7.79" ry="14.63" style="fill:none;stroke:#1c739b;stroke-miterlimit:10;opacity:0.15"/><path d="M24.37,34h0s-5.11.68-5.45,5.42A16.65,16.65,0,0,0,20,47.23s3-6.78,6.65-6.61h0A18.69,18.69,0,0,1,24.37,34Z" style="fill:none;stroke:#1c739b;stroke-miterlimit:10;opacity:0.15"/><path d="M39.21,34h0s5.11,0.68,5.45,5.42a16.65,16.65,0,0,1-1.13,7.79s-3-6.78-6.65-6.61h0A18.69,18.69,0,0,0,39.21,34Z" style="fill:none;stroke:#1c739b;stroke-miterlimit:10;opacity:0.15"/><path d="M24.87,24.74a16.22,16.22,0,0,0,6.91,1.35,16.21,16.21,0,0,0,6.91-1.35" style="fill:none;stroke:#1c739b;stroke-miterlimit:10;opacity:0.15"/><circle cx="31.79" cy="33.05" r="2.35" style="fill:none;stroke:#1c739b;stroke-miterlimit:10;opacity:0.15"/><ellipse cx="31.79" cy="29.56" rx="7.79" ry="14.63" style="fill:none;stroke:#fff;stroke-linecap:round;stroke-linejoin:round;stroke-width:1.4000000000000001px"/><path d="M24.37,34h0s-5.11.68-5.45,5.42A16.65,16.65,0,0,0,20,47.23s3-6.78,6.65-6.61h0A18.69,18.69,0,0,1,24.37,34Z" style="fill:none;stroke:#fff;stroke-linecap:round;stroke-linejoin:round;stroke-width:1.4000000000000001px"/><path d="M39.21,34h0s5.11,0.68,5.45,5.42a16.65,16.65,0,0,1-1.13,7.79s-3-6.78-6.65-6.61h0A18.69,18.69,0,0,0,39.21,34Z" style="fill:none;stroke:#fff;stroke-linecap:round;stroke-linejoin:round;stroke-width:1.4000000000000001px"/><path d="M24.87,24.74a16.22,16.22,0,0,0,6.91,1.35,16.21,16.21,0,0,0,6.91-1.35" style="fill:none;stroke:#fff;stroke-linecap:round;stroke-linejoin:round;stroke-width:1.4000000000000001px"/><circle cx="31.79" cy="33.05" r="2.35" style="fill:none;stroke:#fff;stroke-linecap:round;stroke-linejoin:round;stroke-width:1.4000000000000001px"/><path d="M22.89,41.72L68.05,30.26,61,2.31ZM60.17,25.57L43.38,29.83,57.54,15.18Z" style="fill:#2a4d8e;opacity:0.11"/><path d="M22.89,41.72L68.05,30.26,61,2.31ZM60.17,25.57L43.38,29.83,57.54,15.18Z" style="fill:none;stroke:#9aa8c1;stroke-linecap:round;stroke-linejoin:round"/><polygon points="43.38 29.83 60.17 25.57 57.53 15.18 43.38 29.83" style="fill:none"/><path d="M22.89,41.72L55,8.52H4A1.5,1.5,0,0,0,2.51,10V50.69A1.5,1.5,0,0,0,4,52.19H63.92A2.51,2.51,0,0,0,66.4,50l5.45-41.5H62.53l5.52,21.74Z" style="fill:none"/><path d="M72.8,7.69a0.5,0.5,0,0,0-.38-0.17H62.28l0.25,1h9.32L66.4,50a2.51,2.51,0,0,1-2.48,2.17H4a1.5,1.5,0,0,1-1.5-1.5V10A1.5,1.5,0,0,1,4,8.52H55l1-1H4A2.5,2.5,0,0,0,1.51,10V50.69A2.5,2.5,0,0,0,4,53.19H63.92a3.51,3.51,0,0,0,3.47-3L72.92,8.09A0.5,0.5,0,0,0,72.8,7.69Z" style="fill:#9aa8c1"/><path d="M68.07,6.81l0.46-.25a3.27,3.27,0,0,1,4,.75h0l-5.69,42.6h0a4,4,0,0,0-6.36-1.47L60,48.88Z" style="fill:#fff;stroke:#9aa8c1;stroke-linecap:round;stroke-linejoin:round"/><rect x="7.2" y="14.71" width="4.38" height="4.38" transform="translate(-5.18 4.19) rotate(-19.85)" style="fill:#d4dce8;stroke:#9aa8c1;stroke-linecap:round;stroke-linejoin:round"/><polygon points="13.56 53.45 13.41 57.69 11.58 53.59 9.51 24.33 11.48 24.19 13.56 53.45" style="fill:#fff;stroke:#9aa8c1;stroke-linecap:round;stroke-linejoin:round"/><polygon points="29.52 47.68 32.35 50.85 31.13 46.53 14.04 22.69 12.44 23.85 29.52 47.68" style="fill:#fff;stroke:#9aa8c1;stroke-linecap:round;stroke-linejoin:round"/><rect x="10.25" y="48.19" width="3.63" height="2.53" transform="matrix(1, -0.07, 0.07, 1, -3.47, 0.98)" style="fill:#d4dce8;stroke:#9aa8c1;stroke-linecap:round;stroke-linejoin:round"/><line x1="6.72" y1="30.31" x2="20.01" y2="25.51" style="fill:none;stroke:#9aa8c1;stroke-linecap:round;stroke-linejoin:round"/><line x1="14.02" y1="29.73" x2="13.11" y2="27.21" style="fill:none;stroke:#9aa8c1;stroke-linecap:round;stroke-linejoin:round"/><line x1="8.58" y1="14.66" x2="7.67" y2="12.13" style="fill:none;stroke:#9aa8c1;stroke-linecap:round;stroke-linejoin:round"/><circle cx="10.97" cy="21.27" r="4.64" transform="translate(-6.57 4.99) rotate(-19.85)" style="fill:#d4dce8;stroke:#9aa8c1;stroke-linecap:round;stroke-linejoin:round"/></svg>