<svg id="Layer_1" data-name="Layer 1" xmlns="http://www.w3.org/2000/svg" viewBox="0 0 80 60"><title>ip</title><polyline points="11.89 28.08 40.97 24.6 59.28 28.08" style="fill:none;stroke:#9aa8c1;stroke-linecap:round;stroke-linejoin:round"/><ellipse cx="35.58" cy="16.67" rx="8.13" ry="15.26" style="fill:#fff"/><path d="M35.79,13.05A25.4,25.4,0,0,1,28.27,12a14.78,14.78,0,0,0-.81,4.71c0,8.43,3.64,15.26,8.13,15.26s8.13-6.83,8.13-15.26a14.74,14.74,0,0,0-.78-4.61A25.54,25.54,0,0,1,35.79,13.05Z" style="fill:#d4dce8"/><polygon points="44.48 41.43 33.66 32.25 38.84 47.54 59.28 41.67 59.28 37.19 44.48 41.43" style="fill:#2a4d8e;opacity:0.11"/><polygon points="33.33 58.59 11.89 48.16 11.89 28.08 33.33 32.25 33.33 58.59" style="fill:none;stroke:#9aa8c1;stroke-linecap:round;stroke-linejoin:round"/><polygon points="33.33 58.59 59.28 48.16 59.28 28.08 33.33 32.25 33.33 58.59" style="fill:none;stroke:#9aa8c1;stroke-linecap:round;stroke-linejoin:round"/><ellipse cx="35.58" cy="16.67" rx="8.13" ry="15.26" style="fill:none;stroke:#9aa8c1;stroke-linecap:round;stroke-linejoin:round"/><path d="M27.84,21.33h0S22.5,22,22.15,27a17.37,17.37,0,0,0,1.18,8.13s3.16-7.07,6.94-6.89h0A19.5,19.5,0,0,1,27.84,21.33Z" style="fill:#d4dce8;stroke:#9aa8c1;stroke-linecap:round;stroke-linejoin:round"/><path d="M43.33,21.33h0S48.67,22,49,27a17.37,17.37,0,0,1-1.18,8.13S44.68,28,40.9,28.22h0A19.5,19.5,0,0,0,43.33,21.33Z" style="fill:#d4dce8;stroke:#9aa8c1;stroke-linecap:round;stroke-linejoin:round"/><path d="M28.37,11.65a16.93,16.93,0,0,0,7.21,1.41,16.92,16.92,0,0,0,7.21-1.41" style="fill:none;stroke:#9aa8c1;stroke-linecap:round;stroke-linejoin:round"/><circle cx="35.58" cy="20.31" r="2.45" style="fill:#fff"/><polygon points="59.28 28.08 70.21 34.05 44.48 41.43 33.66 32.25 59.28 28.08" style="fill:#fff"/><polygon points="15.89 28.84 7.07 33.74 30.61 40.96 33.66 32.25 15.89 28.84" style="fill:#2a4d8e;opacity:0.11"/><polygon points="11.89 28.08 2 33.21 24.21 40.02 33.66 32.25 11.89 28.08" style="fill:#fff"/><polygon points="59.28 28.08 70.21 34.05 44.48 41.43 33.66 32.25 59.28 28.08" style="fill:none;stroke:#9aa8c1;stroke-linecap:round;stroke-linejoin:round"/><polygon points="11.89 28.08 2 33.21 24.21 40.02 33.66 32.25 11.89 28.08" style="fill:none;stroke:#9aa8c1;stroke-linecap:round;stroke-linejoin:round"/><circle cx="35.58" cy="20.31" r="2.45" style="fill:none;stroke:#9aa8c1;stroke-linecap:round;stroke-linejoin:round"/></svg>