<svg id="Layer_1" data-name="Layer 1" xmlns="http://www.w3.org/2000/svg" viewBox="0 0 160 90"><ellipse cx="135.51" cy="66.05" rx="9.67" ry="2.91" style="fill:#2a4d8e;opacity:0.08"/><path d="M130.78,31.73a8.21,8.21,0,0,1,2.49,1.79A4.68,4.68,0,0,1,132,35.33C131.17,33.47,130.5,31.83,130.78,31.73Z" style="fill:#2a4d8e;opacity:0.11"/><path d="M131.07,49.32s-1.4,8.92.62,8.81,3.92-2.85,3.92-2.85" style="fill:none;stroke:#9aa8c1;stroke-linecap:round;stroke-linejoin:round"/><polygon points="131.69 50.93 129.37 53.39 127.85 50.93 125.1 54.59 120.83 47.48 116.64 51.03 113.05 42.9 122.37 37.56 125.71 49.39 128.46 46.07 131.69 50.93" style="fill:#fff;stroke:#9aa8c1;stroke-linecap:round;stroke-linejoin:round"/><path d="M139.47,39.23s-8-7.72-8.69-7.49,4,9.16,4,9.16" style="fill:none;stroke:#9aa8c1;stroke-linecap:round;stroke-linejoin:round"/><path d="M130.09,51.53c0.91,4.13,4.08,5.62,7.29,5.6,0.78,0,4.61,1.3,5.69,1s-1.21-2.13-.4-3c1.9-2,2.74-5.49,2-9.08-1.13-5.13-5.16-8.6-9-7.76S129,46.4,130.09,51.53Z" style="fill:#fff"/><path d="M133.54,49c0,0.53-1.39,1-3.12,1l-0.55,0a13.35,13.35,0,0,1,0-1.88l0.55,0C132.15,48.08,133.54,48.51,133.54,49Z" style="fill:#2a4d8e;opacity:0.11"/><path d="M130.43,50.67c1.72,0,3.12.43,3.12,1s-1.39,1-3.12,1h0a8.67,8.67,0,0,1-.31-1.06c-0.06-.27-0.1-0.56-0.14-0.84h0.48Z" style="fill:#2a4d8e;opacity:0.11"/><path d="M130.09,51.53c0.91,4.13,4.08,5.62,7.29,5.6,0.78,0,4.61,1.3,5.69,1s-1.21-2.13-.4-3c1.9-2,2.74-5.49,2-9.08-1.13-5.13-5.16-8.6-9-7.76S129,46.4,130.09,51.53Z" style="fill:none;stroke:#9aa8c1;stroke-linecap:round;stroke-linejoin:round"/><path d="M135.51,38.94s-10.89-2.33-11.34-1.78,8.25,5.66,8.25,5.66" style="fill:#fff"/><ellipse cx="143.07" cy="44.62" rx="0.7" ry="1.11" transform="translate(-6.76 41.31) rotate(-16.06)" style="fill:#9aa8c1"/><ellipse cx="139.65" cy="44.79" rx="1.08" ry="1.28" style="fill:#9aa8c1"/><path d="M127.43,39.75c-1.85-1.2-3.46-2.34-3.26-2.59s1.77,0,3.73.32A7.69,7.69,0,0,1,127.43,39.75Z" style="fill:#2a4d8e;opacity:0.11"/><path d="M135.51,38.94s-10.89-2.33-11.34-1.78,8.25,5.66,8.25,5.66" style="fill:none;stroke:#9aa8c1;stroke-linecap:round;stroke-linejoin:round"/><ellipse cx="11.14" cy="18.39" rx="2.34" ry="1.69" transform="translate(-3.29 2.45) rotate(-10.94)" style="fill:none;stroke:#9aa8c1;stroke-linecap:round;stroke-linejoin:round"/><line x1="13.44" y1="17.94" x2="13.44" y2="10.01" style="fill:none;stroke:#9aa8c1;stroke-linecap:round;stroke-linejoin:round"/><path d="M16.25,15.53l-0.67-.9A2.09,2.09,0,0,0,14.86,14l-1.42-.74V10.34l2.22,2.19a2.09,2.09,0,0,1,.61,1.24l0.2,1.67A0.13,0.13,0,0,1,16.25,15.53Z" style="fill:none;stroke:#9aa8c1;stroke-linecap:round;stroke-linejoin:round"/><ellipse cx="26.36" cy="26.89" rx="2.34" ry="1.69" transform="translate(-4.63 5.49) rotate(-10.94)" style="fill:none;stroke:#9aa8c1;stroke-linecap:round;stroke-linejoin:round"/><line x1="28.66" y1="26.44" x2="28.66" y2="18.51" style="fill:none;stroke:#9aa8c1;stroke-linecap:round;stroke-linejoin:round"/><ellipse cx="33.23" cy="25.61" rx="2.34" ry="1.69" transform="translate(-4.26 6.77) rotate(-10.94)" style="fill:none;stroke:#9aa8c1;stroke-linecap:round;stroke-linejoin:round"/><line x1="35.52" y1="25.17" x2="35.52" y2="17.24" style="fill:none;stroke:#9aa8c1;stroke-linecap:round;stroke-linejoin:round"/><line x1="28.66" y1="18.51" x2="35.52" y2="17.24" style="fill:none;stroke:#9aa8c1;stroke-linecap:round;stroke-linejoin:round"/><line x1="28.66" y1="20.56" x2="35.52" y2="19.29" style="fill:none;stroke:#9aa8c1;stroke-linecap:round;stroke-linejoin:round"/><ellipse cx="81.41" cy="83.91" rx="33.34" ry="4.13" style="fill:#2a4d8e;opacity:0.08"/><circle cx="81.41" cy="42.03" r="36.34" style="fill:#fff"/><circle cx="80.41" cy="45.03" r="30.46" style="fill:#fcf3c0"/><circle cx="61.44" cy="53.84" r="5.01" style="fill:#2a4d8e;opacity:0.11"/><circle cx="97.94" cy="23.82" r="5.01" style="fill:#2a4d8e;opacity:0.11"/><path d="M108,59.77a5,5,0,0,0-2.39,9.39,36.52,36.52,0,0,0,6.36-7.42A5,5,0,0,0,108,59.77Z" style="fill:#2a4d8e;opacity:0.11"/><path d="M85.41,70.24A36.34,36.34,0,0,1,51.05,22.06a36.34,36.34,0,1,0,64.72,31.81A36.3,36.3,0,0,1,85.41,70.24Z" style="fill:#2a4d8e;opacity:0.11"/><path d="M100.08,73.16c-0.29,4.14-1.45,6.92-3.54,7.75-6.12,2.42-17.89-12.81-26.3-34S60,6.51,66.12,4.08c1.9-.75,4.35.2,7.07,2.51" style="fill:none;stroke:#9aa8c1;stroke-linecap:round;stroke-linejoin:round"/><path d="M93.2,7.64c8.4,0.28,14.21,2.17,14.73,5.31,0.83,5-12.07,11.31-28.8,14.07s-31,1-31.8-4.06c-0.51-3.07,4.14-6.62,11.66-9.55" style="fill:none;stroke:#9aa8c1;stroke-linecap:round;stroke-linejoin:round"/><path d="M117.12,48.83c1.66,0.94,2.68,2.08,2.9,3.42,1,6-14.5,13.59-34.61,16.91S48.19,70.3,47.2,64.29c-0.25-1.5.53-3.11,2.16-4.71" style="fill:none;stroke:#9aa8c1;stroke-linecap:round;stroke-linejoin:round"/><path d="M113.73,25.4c4.74,1.25,7.7,3.21,8.12,5.77,1.14,6.92-16.67,15.62-39.79,19.44S39.29,51.92,38.14,45c-0.48-2.88,2.33-6.06,7.43-9.08" style="fill:none;stroke:#9aa8c1;stroke-linecap:round;stroke-linejoin:round"/><circle cx="62" cy="52.12" r="5.01" style="fill:#f9c7c0"/><circle cx="98.42" cy="21.61" r="5.01" style="fill:#e3d1ed"/><circle cx="62" cy="52.12" r="5.01" style="fill:none;stroke:#9aa8c1;stroke-linecap:round;stroke-linejoin:round"/><circle cx="98.42" cy="21.61" r="5.01" style="fill:#f9c7c0;stroke:#9aa8c1;stroke-linecap:round;stroke-linejoin:round"/><circle cx="81.41" cy="42.03" r="36.34" style="fill:none;stroke:#9aa8c1;stroke-linecap:round;stroke-linejoin:round"/><circle cx="109.03" cy="62.71" r="5.01" style="fill:#e3d1ed"/><circle cx="109.03" cy="62.71" r="5.01" style="fill:#f9c7c0;stroke:#9aa8c1;stroke-linecap:round;stroke-linejoin:round"/><ellipse cx="25.42" cy="82.24" rx="3.75" ry="12.56" transform="translate(-58.76 100.22) rotate(-84.88)" style="fill:#2a4d8e;opacity:0.08"/><path d="M36,81.78c-0.31-.61-2.65-1.11-5.73-1.26V67.48H26.35V80.53c-3.06.15-5.37,0.65-5.68,1.25h0v1.44c0,0.8,3.45,1.44,7.7,1.44S36,84,36,83.23V81.78h0Z" style="fill:#f0f3f6"/><path d="M26.35,67.48V80.53c0,0.47,1.12.56,1.12,0.56V67.48H26.35Z" style="fill:#2a4d8e;opacity:0.11"/><path d="M28.33,83.11c-4,0-7.35-.58-7.67-1.33h0v1.44c0,0.8,3.45,1.44,7.7,1.44S36,84,36,83.23V81.78h0C35.68,82.53,32.37,83.11,28.33,83.11Z" style="fill:#2a4d8e;opacity:0.11"/><path d="M36,81.78c-0.31-.61-2.65-1.11-5.73-1.26V67.48H26.35V80.53c-3.06.15-5.37,0.65-5.68,1.25h0v1.44c0,0.8,3.45,1.44,7.7,1.44S36,84,36,83.23V81.78h0Z" style="fill:none;stroke:#9aa8c1;stroke-linecap:round;stroke-linejoin:round"/><path d="M29.51,66l1.28-4.47-4.21-.7-1.09,6.56A2.07,2.07,0,0,0,26.83,70l3.36,1.27,1.85-3Z" style="fill:#f0f3f6"/><path d="M29.51,66l1.28-4.47-4.21-.7-1.09,6.56A2.07,2.07,0,0,0,26.83,70l3.36,1.27,1.85-3Z" style="fill:#2a4d8e;opacity:0.11"/><path d="M30.18,71.24h0a2.07,2.07,0,0,1-1.35-2.54l1.09-6.56,4.21,0.7L32.21,69.6A2,2,0,0,1,30.18,71.24Z" style="fill:#f0f3f6"/><path d="M30.59,62.24l0.19-.68-4.21-.7-1.09,6.56A2.07,2.07,0,0,0,26.83,70l2.92,1.1a1.36,1.36,0,0,0,.44.17h0a2,2,0,0,0,2-1.64l1.93-6.77Z" style="fill:none;stroke:#9aa8c1;stroke-linecap:round;stroke-linejoin:round"/><ellipse cx="30.5" cy="69.16" rx="1.4" ry="1.07" transform="translate(-42.73 87.87) rotate(-80.53)" style="fill:#d4dce8"/><path d="M29.43,69.41a1.58,1.58,0,0,0,.1.45l2.05-.77a1.67,1.67,0,0,0-.06-0.51Z" style="fill:#2a4d8e;opacity:0.11"/><path d="M34.57,39.8c-4.37-1.15-8.39-.28-9,1.95L21.24,58.22c-0.59,2.23,2.48,5,6.85,6.12s8.39,0.28,9-1.95l4.34-16.47C42,43.7,38.94,41,34.57,39.8Z" style="fill:#f0f3f6"/><path d="M41.21,46.72L39.63,46A0.76,0.76,0,1,0,39,47.37l1.82,0.84Z" style="fill:#d4dce8"/><path d="M36.53,46.29l-0.1,0a30.92,30.92,0,0,0-3.66-1.33c-0.87-.23-2-0.46-3.26-0.69a0.76,0.76,0,0,1,.27-1.49c1.34,0.24,2.47.48,3.38,0.72A32.29,32.29,0,0,1,37,44.85,0.76,0.76,0,0,1,36.53,46.29Z" style="fill:#d4dce8"/><path d="M40.42,49.72L38.83,49a0.76,0.76,0,0,0-.62,1.38L40,51.21Z" style="fill:#d4dce8"/><path d="M35.74,49.28l-0.1,0A30.91,30.91,0,0,0,32,47.93c-0.87-.23-2-0.46-3.26-0.69A0.76,0.76,0,0,1,29,45.74c1.34,0.24,2.47.48,3.38,0.72a32.29,32.29,0,0,1,3.86,1.39A0.76,0.76,0,0,1,35.74,49.28Z" style="fill:#d4dce8"/><path d="M34.94,52.34l-0.09,0A36,36,0,0,0,31.16,51c-0.87-.23-2-0.48-3.27-0.74a0.76,0.76,0,0,1,.3-1.48c1.32,0.27,2.45.53,3.35,0.76a37.46,37.46,0,0,1,3.86,1.34A0.76,0.76,0,0,1,34.94,52.34Z" style="fill:#d4dce8"/><path d="M34.13,55.39l-0.07,0c-1.59-.59-2.84-1-3.71-1.24s-2-.5-3.27-0.8a0.76,0.76,0,0,1,.34-1.48c1.31,0.3,2.42.57,3.32,0.81S33,53.34,34.59,54A0.76,0.76,0,0,1,34.13,55.39Z" style="fill:#d4dce8"/><path d="M33.34,58.39l-0.07,0c-1.59-.59-2.84-1-3.71-1.24s-2-.5-3.27-0.8a0.76,0.76,0,1,1,.34-1.48c1.31,0.3,2.42.57,3.32,0.81S32.16,56.34,33.8,57A0.76,0.76,0,0,1,33.34,58.39Z" style="fill:#d4dce8"/><path d="M32.54,61.45l-0.06,0c-1.6-.56-2.86-1-3.74-1.2l-3.28-.85h0a0.76,0.76,0,0,1,.38-1.47l3.29,0.85C30,59,31.34,59.43,33,60A0.76,0.76,0,0,1,32.54,61.45Z" style="fill:#d4dce8"/><path d="M39.64,52.67L38,52a0.76,0.76,0,0,0-.59,1.39l1.82,0.79Z" style="fill:#d4dce8"/><path d="M38.86,55.63L37.22,55a0.76,0.76,0,0,0-.56,1.41l1.81,0.73Z" style="fill:#d4dce8"/><path d="M38.07,58.63L36.43,58a0.76,0.76,0,1,0-.56,1.41l1.81,0.73Z" style="fill:#d4dce8"/><path d="M35.62,61a0.76,0.76,0,0,0-.53,1.42L36.8,63a2.21,2.21,0,0,0,.27-0.62l0.21-.81Z" style="fill:#d4dce8"/><path d="M27.13,42.32l-1.64-.23-0.39,1.48,1.81,0.25A0.76,0.76,0,0,0,27.13,42.32Z" style="fill:#d4dce8"/><path d="M26.34,45.32l-1.64-.23-0.39,1.48,1.81,0.25A0.76,0.76,0,0,0,26.34,45.32Z" style="fill:#d4dce8"/><path d="M25.56,48.3L23.94,48l-0.39,1.47,1.74,0.3A0.76,0.76,0,1,0,25.56,48.3Z" style="fill:#d4dce8"/><path d="M24.82,51.29l-1.66-.35L22.78,52.4l1.72,0.37A0.76,0.76,0,0,0,24.82,51.29Z" style="fill:#d4dce8"/><path d="M24,54.29l-1.66-.35L22,55.4l1.72,0.37A0.76,0.76,0,0,0,24,54.29Z" style="fill:#d4dce8"/><path d="M23.27,57.27l-1.66-.42-0.36,1.37,0,0.1,1.68,0.42A0.76,0.76,0,0,0,23.27,57.27Z" style="fill:#d4dce8"/><ellipse cx="26.34" cy="50.76" rx="2.5" ry="1.6" transform="translate(-29.46 63.28) rotate(-75.23)" style="fill:#f0f3f6"/><ellipse cx="26.34" cy="50.76" rx="1.36" ry="0.87" transform="translate(-29.46 63.28) rotate(-75.23)" style="fill:#e3d1ed"/><path d="M28.75,60.2l4.34-16.47a4.34,4.34,0,0,1,4.28-2.89,15.3,15.3,0,0,0-2.81-1c-4.37-1.15-8.39-.28-9,1.95L21.24,58.22c-0.59,2.23,2.48,5,6.85,6.12a15.3,15.3,0,0,0,3,.48A4.34,4.34,0,0,1,28.75,60.2Z" style="fill:#2a4d8e;opacity:0.11"/><path d="M34.57,39.8c-4.37-1.15-8.39-.28-9,1.95L21.24,58.22c-0.59,2.23,2.48,5,6.85,6.12s8.39,0.28,9-1.95l4.34-16.47C42,43.7,38.94,41,34.57,39.8Z" style="fill:none;stroke:#9aa8c1;stroke-linecap:round;stroke-linejoin:round"/></svg>