<svg id="Layer_3" data-name="Layer 3" xmlns="http://www.w3.org/2000/svg" viewBox="0 0 160 90"><line x1="27.65" y1="46.17" x2="27.65" y2="40.13" style="fill:none;stroke:#2a4d8e;stroke-linecap:round;stroke-linejoin:round;opacity:0.11"/><line x1="17.3" y1="55.72" x2="11.26" y2="55.72" style="fill:none;stroke:#2a4d8e;stroke-linecap:round;stroke-linejoin:round;opacity:0.11"/><line x1="20.46" y1="48.93" x2="16.19" y2="44.66" style="fill:none;stroke:#2a4d8e;stroke-linecap:round;stroke-linejoin:round;opacity:0.11"/><rect x="91.79" y="16.72" width="52.81" height="35.38" rx="3" ry="3" transform="translate(-4.36 45.97) rotate(-21.62)" style="fill:#dbdbdb"/><path d="M148.15,38.34L137.32,11a3,3,0,0,0-3.89-1.68l-5.32,2.11s-8.87,6.34-11.69,12.8c-7.44,17,31.19-6.13,18.87,19.38-10,20.65-27.35-8.59-41.72.33L99.06,57.8A3,3,0,0,0,103,59.48l43.51-17.25A3,3,0,0,0,148.15,38.34Z" style="fill:#fff"/><rect x="95.41" y="35.17" width="9.26" height="6.2" rx="1.61" ry="1.61" transform="translate(-7.06 39.56) rotate(-21.62)" style="fill:#fff"/><rect x="95.41" y="35.17" width="9.26" height="6.2" rx="1.61" ry="1.61" transform="translate(-7.06 39.56) rotate(-21.62)" style="fill:none;stroke:#2a4d8e;stroke-linecap:round;stroke-linejoin:round;opacity:0.11"/><line x1="99.85" y1="48.28" x2="100.59" y2="50.14" style="fill:none;stroke:#2a4d8e;stroke-linecap:round;stroke-linejoin:round;opacity:0.11"/><line x1="101.71" y1="47.54" x2="102.45" y2="49.4" style="fill:none;stroke:#2a4d8e;stroke-linecap:round;stroke-linejoin:round;opacity:0.11"/><line x1="103.57" y1="46.8" x2="104.3" y2="48.66" style="fill:none;stroke:#2a4d8e;stroke-linecap:round;stroke-linejoin:round;opacity:0.11"/><line x1="105.43" y1="46.07" x2="106.16" y2="47.93" style="fill:none;stroke:#2a4d8e;stroke-linecap:round;stroke-linejoin:round;opacity:0.11"/><line x1="109.15" y1="44.59" x2="109.88" y2="46.45" style="fill:none;stroke:#2a4d8e;stroke-linecap:round;stroke-linejoin:round;opacity:0.11"/><line x1="111.01" y1="43.86" x2="111.74" y2="45.72" style="fill:none;stroke:#2a4d8e;stroke-linecap:round;stroke-linejoin:round;opacity:0.11"/><line x1="112.86" y1="43.12" x2="113.6" y2="44.98" style="fill:none;stroke:#2a4d8e;stroke-linecap:round;stroke-linejoin:round;opacity:0.11"/><line x1="114.72" y1="42.38" x2="115.46" y2="44.24" style="fill:none;stroke:#2a4d8e;stroke-linecap:round;stroke-linejoin:round;opacity:0.11"/><line x1="118.44" y1="40.91" x2="119.18" y2="42.77" style="fill:none;stroke:#2a4d8e;stroke-linecap:round;stroke-linejoin:round;opacity:0.11"/><line x1="120.3" y1="40.17" x2="121.04" y2="42.03" style="fill:none;stroke:#2a4d8e;stroke-linecap:round;stroke-linejoin:round;opacity:0.11"/><line x1="122.16" y1="39.43" x2="122.9" y2="41.29" style="fill:none;stroke:#2a4d8e;stroke-linecap:round;stroke-linejoin:round;opacity:0.11"/><line x1="124.02" y1="38.7" x2="124.76" y2="40.56" style="fill:none;stroke:#2a4d8e;stroke-linecap:round;stroke-linejoin:round;opacity:0.11"/><line x1="127.74" y1="37.22" x2="128.48" y2="39.08" style="fill:none;stroke:#2a4d8e;stroke-linecap:round;stroke-linejoin:round;opacity:0.11"/><line x1="129.6" y1="36.49" x2="130.33" y2="38.35" style="fill:none;stroke:#2a4d8e;stroke-linecap:round;stroke-linejoin:round;opacity:0.11"/><line x1="131.46" y1="35.75" x2="132.19" y2="37.61" style="fill:none;stroke:#2a4d8e;stroke-linecap:round;stroke-linejoin:round;opacity:0.11"/><line x1="133.32" y1="35.01" x2="134.05" y2="36.87" style="fill:none;stroke:#2a4d8e;stroke-linecap:round;stroke-linejoin:round;opacity:0.11"/><line x1="101.93" y1="53.54" x2="102.45" y2="54.84" style="fill:none;stroke:#2a4d8e;stroke-linecap:round;stroke-linejoin:round;opacity:0.11"/><line x1="103.51" y1="52.91" x2="104.03" y2="54.21" style="fill:none;stroke:#2a4d8e;stroke-linecap:round;stroke-linejoin:round;opacity:0.11"/><line x1="105.1" y1="52.29" x2="105.61" y2="53.58" style="fill:none;stroke:#2a4d8e;stroke-linecap:round;stroke-linejoin:round;opacity:0.11"/><line x1="106.68" y1="51.66" x2="107.19" y2="52.96" style="fill:none;stroke:#2a4d8e;stroke-linecap:round;stroke-linejoin:round;opacity:0.11"/><line x1="108.26" y1="51.03" x2="108.77" y2="52.33" style="fill:none;stroke:#2a4d8e;stroke-linecap:round;stroke-linejoin:round;opacity:0.11"/><line x1="109.84" y1="50.41" x2="110.35" y2="51.71" style="fill:none;stroke:#2a4d8e;stroke-linecap:round;stroke-linejoin:round;opacity:0.11"/><line x1="113" y1="49.15" x2="113.51" y2="50.45" style="fill:none;stroke:#2a4d8e;stroke-linecap:round;stroke-linejoin:round;opacity:0.11"/><line x1="114.58" y1="48.53" x2="115.09" y2="49.83" style="fill:none;stroke:#2a4d8e;stroke-linecap:round;stroke-linejoin:round;opacity:0.11"/><line x1="116.16" y1="47.9" x2="116.67" y2="49.2" style="fill:none;stroke:#2a4d8e;stroke-linecap:round;stroke-linejoin:round;opacity:0.11"/><line x1="117.74" y1="47.27" x2="118.25" y2="48.57" style="fill:none;stroke:#2a4d8e;stroke-linecap:round;stroke-linejoin:round;opacity:0.11"/><line x1="119.32" y1="46.65" x2="119.83" y2="47.95" style="fill:none;stroke:#2a4d8e;stroke-linecap:round;stroke-linejoin:round;opacity:0.11"/><line x1="120.9" y1="46.02" x2="121.41" y2="47.32" style="fill:none;stroke:#2a4d8e;stroke-linecap:round;stroke-linejoin:round;opacity:0.11"/><line x1="122.48" y1="45.39" x2="122.99" y2="46.69" style="fill:none;stroke:#2a4d8e;stroke-linecap:round;stroke-linejoin:round;opacity:0.11"/><line x1="124.06" y1="44.77" x2="124.57" y2="46.07" style="fill:none;stroke:#2a4d8e;stroke-linecap:round;stroke-linejoin:round;opacity:0.11"/><line x1="125.64" y1="44.14" x2="126.15" y2="45.44" style="fill:none;stroke:#2a4d8e;stroke-linecap:round;stroke-linejoin:round;opacity:0.11"/><line x1="139.86" y1="38.5" x2="140.38" y2="39.8" style="fill:none;stroke:#2a4d8e;stroke-linecap:round;stroke-linejoin:round;opacity:0.11"/><line x1="141.44" y1="37.88" x2="141.96" y2="39.18" style="fill:none;stroke:#2a4d8e;stroke-linecap:round;stroke-linejoin:round;opacity:0.11"/><line x1="143.02" y1="37.25" x2="143.54" y2="38.55" style="fill:none;stroke:#2a4d8e;stroke-linecap:round;stroke-linejoin:round;opacity:0.11"/><path d="M133.13,12.43l-13,5.16a2,2,0,0,0-1.12,2.6l3.68,9.3a2,2,0,0,0,2.6,1.12l13-5.16a2,2,0,0,0,1.12-2.6l-3.68-9.3a2,2,0,0,0-2.6-1.12h0Z" style="fill:#c2e6ef"/><path d="M127.23,23.91l-0.82.32a0.22,0.22,0,0,1-.27-0.08l-1.34-1.87a0.22,0.22,0,0,0-.17-0.09l-0.93-.07s0,0,0,0l3-1.2a0.22,0.22,0,0,1,.31.18l0.35,2.61A0.22,0.22,0,0,1,127.23,23.91Z" style="fill:#fff"/><path d="M128.86,23.27l-0.71.28a0.22,0.22,0,0,1-.31-0.18l-0.35-2.61a0.22,0.22,0,0,1,.14-0.24l0.71-.28a0.22,0.22,0,0,1,.31.18L129,23A0.22,0.22,0,0,1,128.86,23.27Z" style="fill:#fff"/><path d="M130.48,22.62l-0.71.28a0.22,0.22,0,0,1-.31-0.18l-0.35-2.61a0.22,0.22,0,0,1,.14-0.24L130,19.6a0.22,0.22,0,0,1,.31.18l0.35,2.61A0.22,0.22,0,0,1,130.48,22.62Z" style="fill:#fff"/><path d="M133.39,21.47l-2,.79a0.22,0.22,0,0,1-.31-0.18l-0.35-2.61a0.22,0.22,0,0,1,.14-0.24l0.82-.32A0.22,0.22,0,0,1,132,19l1.53,2.14A0.22,0.22,0,0,1,133.39,21.47Z" style="fill:#fff"/><rect x="91.79" y="16.72" width="52.81" height="35.38" rx="3" ry="3" transform="translate(-4.36 45.97) rotate(-21.62)" style="fill:none;stroke:#9aa8c1;stroke-linecap:round;stroke-linejoin:round"/><path d="M141.17,30.12a3,3,0,0,0-3.41-2.52L91.47,34.52a3,3,0,0,0-1.4.61l9,22.67A3,3,0,0,0,103,59.48l40.23-15.95Z" style="fill:#2a4d8e;opacity:0.11"/><path d="M114.42,16.88L89.91,26.59a3,3,0,0,0-1.68,3.89L99.06,57.8A3,3,0,0,0,103,59.48l11.47-4.55V16.88Z" style="fill:#2a4d8e;opacity:0.11"/><rect x="93.61" y="34.87" width="52.81" height="35.38" rx="3" ry="3" transform="translate(-6.45 18.33) rotate(-8.5)" style="fill:#e3d1ed"/><path d="M113,35.72L95.37,38.35C102.92,44.67,122,61,131.2,68.77L143.26,67Z" style="fill:#c8e8de"/><path d="M117,35.13L99.38,37.76c7.55,6.32,26.67,22.6,35.83,30.42l12.05-1.8Z" style="fill:#fcf3c0"/><rect x="96.84" y="49.09" width="9.26" height="6.2" rx="1.61" ry="1.61" transform="translate(-6.6 15.58) rotate(-8.5)" style="fill:#fff"/><rect x="96.84" y="49.09" width="9.26" height="6.2" rx="1.61" ry="1.61" transform="translate(-6.6 15.58) rotate(-8.5)" style="fill:none;stroke:#2a4d8e;stroke-linecap:round;stroke-linejoin:round;opacity:0.11"/><line x1="99" y1="61.9" x2="99.3" y2="63.88" style="fill:none;stroke:#2a4d8e;stroke-linecap:round;stroke-linejoin:round;opacity:0.11"/><line x1="100.98" y1="61.6" x2="101.28" y2="63.58" style="fill:none;stroke:#2a4d8e;stroke-linecap:round;stroke-linejoin:round;opacity:0.11"/><line x1="102.96" y1="61.31" x2="103.26" y2="63.29" style="fill:none;stroke:#2a4d8e;stroke-linecap:round;stroke-linejoin:round;opacity:0.11"/><line x1="104.94" y1="61.01" x2="105.23" y2="62.99" style="fill:none;stroke:#2a4d8e;stroke-linecap:round;stroke-linejoin:round;opacity:0.11"/><line x1="108.89" y1="60.42" x2="109.19" y2="62.4" style="fill:none;stroke:#2a4d8e;stroke-linecap:round;stroke-linejoin:round;opacity:0.11"/><line x1="110.87" y1="60.12" x2="111.17" y2="62.1" style="fill:none;stroke:#2a4d8e;stroke-linecap:round;stroke-linejoin:round;opacity:0.11"/><line x1="112.85" y1="59.83" x2="113.15" y2="61.81" style="fill:none;stroke:#2a4d8e;stroke-linecap:round;stroke-linejoin:round;opacity:0.11"/><line x1="114.83" y1="59.53" x2="115.12" y2="61.51" style="fill:none;stroke:#2a4d8e;stroke-linecap:round;stroke-linejoin:round;opacity:0.11"/><line x1="118.78" y1="58.94" x2="119.08" y2="60.92" style="fill:none;stroke:#2a4d8e;stroke-linecap:round;stroke-linejoin:round;opacity:0.11"/><line x1="120.76" y1="58.65" x2="121.06" y2="60.62" style="fill:none;stroke:#2a4d8e;stroke-linecap:round;stroke-linejoin:round;opacity:0.11"/><line x1="122.74" y1="58.35" x2="123.04" y2="60.33" style="fill:none;stroke:#2a4d8e;stroke-linecap:round;stroke-linejoin:round;opacity:0.11"/><line x1="124.72" y1="58.05" x2="125.01" y2="60.03" style="fill:none;stroke:#2a4d8e;stroke-linecap:round;stroke-linejoin:round;opacity:0.11"/><line x1="128.67" y1="57.46" x2="128.97" y2="59.44" style="fill:none;stroke:#2a4d8e;stroke-linecap:round;stroke-linejoin:round;opacity:0.11"/><line x1="130.65" y1="57.17" x2="130.95" y2="59.14" style="fill:none;stroke:#2a4d8e;stroke-linecap:round;stroke-linejoin:round;opacity:0.11"/><line x1="132.63" y1="56.87" x2="132.93" y2="58.85" style="fill:none;stroke:#2a4d8e;stroke-linecap:round;stroke-linejoin:round;opacity:0.11"/><line x1="134.61" y1="56.58" x2="134.9" y2="58.55" style="fill:none;stroke:#2a4d8e;stroke-linecap:round;stroke-linejoin:round;opacity:0.11"/><line x1="99.84" y1="67.49" x2="100.05" y2="68.88" style="fill:none;stroke:#2a4d8e;stroke-linecap:round;stroke-linejoin:round;opacity:0.11"/><line x1="101.52" y1="67.24" x2="101.73" y2="68.63" style="fill:none;stroke:#2a4d8e;stroke-linecap:round;stroke-linejoin:round;opacity:0.11"/><line x1="103.2" y1="66.99" x2="103.41" y2="68.37" style="fill:none;stroke:#2a4d8e;stroke-linecap:round;stroke-linejoin:round;opacity:0.11"/><line x1="104.88" y1="66.74" x2="105.09" y2="68.12" style="fill:none;stroke:#2a4d8e;stroke-linecap:round;stroke-linejoin:round;opacity:0.11"/><line x1="106.57" y1="66.49" x2="106.77" y2="67.87" style="fill:none;stroke:#2a4d8e;stroke-linecap:round;stroke-linejoin:round;opacity:0.11"/><line x1="108.25" y1="66.24" x2="108.45" y2="67.62" style="fill:none;stroke:#2a4d8e;stroke-linecap:round;stroke-linejoin:round;opacity:0.11"/><line x1="111.61" y1="65.73" x2="111.82" y2="67.12" style="fill:none;stroke:#2a4d8e;stroke-linecap:round;stroke-linejoin:round;opacity:0.11"/><line x1="113.29" y1="65.48" x2="113.5" y2="66.87" style="fill:none;stroke:#2a4d8e;stroke-linecap:round;stroke-linejoin:round;opacity:0.11"/><line x1="114.97" y1="65.23" x2="115.18" y2="66.61" style="fill:none;stroke:#2a4d8e;stroke-linecap:round;stroke-linejoin:round;opacity:0.11"/><line x1="116.65" y1="64.98" x2="116.86" y2="66.36" style="fill:none;stroke:#2a4d8e;stroke-linecap:round;stroke-linejoin:round;opacity:0.11"/><line x1="118.33" y1="64.73" x2="118.54" y2="66.11" style="fill:none;stroke:#2a4d8e;stroke-linecap:round;stroke-linejoin:round;opacity:0.11"/><line x1="120.02" y1="64.48" x2="120.22" y2="65.86" style="fill:none;stroke:#2a4d8e;stroke-linecap:round;stroke-linejoin:round;opacity:0.11"/><line x1="121.7" y1="64.23" x2="121.9" y2="65.61" style="fill:none;stroke:#2a4d8e;stroke-linecap:round;stroke-linejoin:round;opacity:0.11"/><line x1="123.38" y1="63.98" x2="123.59" y2="65.36" style="fill:none;stroke:#2a4d8e;stroke-linecap:round;stroke-linejoin:round;opacity:0.11"/><line x1="125.06" y1="63.72" x2="125.27" y2="65.11" style="fill:none;stroke:#2a4d8e;stroke-linecap:round;stroke-linejoin:round;opacity:0.11"/><line x1="140.19" y1="61.46" x2="140.4" y2="62.84" style="fill:none;stroke:#2a4d8e;stroke-linecap:round;stroke-linejoin:round;opacity:0.11"/><line x1="141.87" y1="61.21" x2="142.08" y2="62.59" style="fill:none;stroke:#2a4d8e;stroke-linecap:round;stroke-linejoin:round;opacity:0.11"/><line x1="143.55" y1="60.96" x2="143.76" y2="62.34" style="fill:none;stroke:#2a4d8e;stroke-linecap:round;stroke-linejoin:round;opacity:0.11"/><rect x="93.61" y="34.87" width="52.81" height="35.38" rx="3" ry="3" transform="translate(-6.45 18.33) rotate(-8.5)" style="fill:none;stroke:#9aa8c1;stroke-linecap:round;stroke-linejoin:round"/><path d="M139.55,34.54l-13.85,2.07A2,2,0,0,0,124,38.88l1.48,9.89a2,2,0,0,0,2.27,1.68l13.85-2.07a2,2,0,0,0,1.68-2.27l-1.48-9.89a2,2,0,0,0-2.27-1.68h0Z" style="fill:#fff"/><path d="M132.54,42.66A3,3,0,0,0,134,44.81a3,3,0,0,0-.69-4.62A3,3,0,0,0,132.54,42.66Z" style="fill:#ff5f00"/><path d="M132.54,42.66A3,3,0,0,0,134,44.81a3,3,0,0,0-.69-4.62A3,3,0,0,0,132.54,42.66Z" style="fill:#f2e4c2"/><path d="M135.06,39.25a3,3,0,0,0-1.74.93,3,3,0,0,1,.69,4.62A3,3,0,1,0,135.06,39.25Z" style="fill:#fcf3c0"/><path d="M132.54,42.66a3,3,0,0,1,.78-2.48,3,3,0,1,0,.69,4.62A3,3,0,0,1,132.54,42.66Z" style="fill:#f9c7c0"/><path d="M111.42,36L94.25,38.52a3,3,0,0,0-2.52,3.41L96.07,71a3,3,0,0,0,3.41,2.52l11.94-1.79V36Z" style="fill:#2a4d8e;opacity:0.11"/><ellipse cx="80" cy="85.14" rx="30.39" ry="3.47" style="fill:#2a4d8e;opacity:0.08"/><ellipse cx="30.02" cy="81.01" rx="5.8" ry="16.72" transform="translate(-53.66 102.46) rotate(-84.05)" style="fill:#2a4d8e;opacity:0.08"/><path d="M25.28,78.4v4.43c0,1.68,4.3,3,9.61,3s9.61-1.36,9.61-3V78.4H25.28Z" style="fill:#fcf3c0"/><path d="M28.65,78.4H25.28v4.43c0,0.93,1.31,1.76,3.38,2.31V78.4Z" style="fill:#2a4d8e;opacity:0.11"/><path d="M25.28,78.4v4.43c0,1.68,4.3,3,9.61,3s9.61-1.36,9.61-3V78.4H25.28Z" style="fill:none;stroke:#9aa8c1;stroke-linecap:round;stroke-linejoin:round"/><ellipse cx="34.88" cy="78.4" rx="9.61" ry="3.04" style="fill:#fcf3c0"/><ellipse cx="34.88" cy="78.4" rx="9.61" ry="3.04" style="fill:none;stroke:#9aa8c1;stroke-linecap:round;stroke-linejoin:round"/><line x1="41.36" y1="82.13" x2="41.36" y2="83.54" style="fill:none;stroke:#fff;stroke-linecap:round;stroke-miterlimit:10"/><line x1="42.98" y1="81.44" x2="42.98" y2="82.85" style="fill:none;stroke:#fff;stroke-linecap:round;stroke-miterlimit:10"/><path d="M26.64,72.07V76.5c0,1.68,4.3,3,9.61,3s9.61-1.36,9.61-3V72.07H26.64Z" style="fill:#fcf3c0"/><path d="M30,72.07H26.64V76.5c0,0.93,1.31,1.76,3.38,2.31V72.07Z" style="fill:#2a4d8e;opacity:0.11"/><path d="M26.64,72.07V76.5c0,1.68,4.3,3,9.61,3s9.61-1.36,9.61-3V72.07H26.64Z" style="fill:none;stroke:#9aa8c1;stroke-linecap:round;stroke-linejoin:round"/><ellipse cx="36.24" cy="72.07" rx="9.61" ry="3.04" style="fill:#fcf3c0"/><ellipse cx="36.24" cy="72.07" rx="9.61" ry="3.04" style="fill:none;stroke:#9aa8c1;stroke-linecap:round;stroke-linejoin:round"/><line x1="42.72" y1="75.81" x2="42.72" y2="77.22" style="fill:none;stroke:#fff;stroke-linecap:round;stroke-miterlimit:10"/><line x1="44.34" y1="75.11" x2="44.34" y2="76.52" style="fill:none;stroke:#fff;stroke-linecap:round;stroke-miterlimit:10"/><path d="M25,65.48v4.43c0,1.68,4.3,3,9.61,3s9.61-1.36,9.61-3V65.48H25Z" style="fill:#fcf3c0"/><path d="M28.33,65.48H25v4.43c0,0.93,1.31,1.76,3.38,2.31V65.48Z" style="fill:#2a4d8e;opacity:0.11"/><path d="M25,65.48v4.43c0,1.68,4.3,3,9.61,3s9.61-1.36,9.61-3V65.48H25Z" style="fill:none;stroke:#9aa8c1;stroke-linecap:round;stroke-linejoin:round"/><ellipse cx="34.56" cy="65.48" rx="9.61" ry="3.04" style="fill:#fcf3c0"/><ellipse cx="34.56" cy="65.48" rx="9.61" ry="3.04" style="fill:none;stroke:#9aa8c1;stroke-linecap:round;stroke-linejoin:round"/><line x1="41.03" y1="69.21" x2="41.03" y2="70.62" style="fill:none;stroke:#fff;stroke-linecap:round;stroke-miterlimit:10"/><line x1="42.65" y1="68.52" x2="42.65" y2="69.93" style="fill:none;stroke:#fff;stroke-linecap:round;stroke-miterlimit:10"/><path d="M25.28,59.33v4.43c0,1.68,4.3,3,9.61,3s9.61-1.36,9.61-3V59.33H25.28Z" style="fill:#fcf3c0"/><path d="M28.65,59.33H25.28v4.43c0,0.93,1.31,1.76,3.38,2.31V59.33Z" style="fill:#2a4d8e;opacity:0.11"/><path d="M25.28,59.33v4.43c0,1.68,4.3,3,9.61,3s9.61-1.36,9.61-3V59.33H25.28Z" style="fill:none;stroke:#9aa8c1;stroke-linecap:round;stroke-linejoin:round"/><ellipse cx="34.88" cy="59.33" rx="9.61" ry="3.04" style="fill:#fcf3c0"/><ellipse cx="34.88" cy="59.33" rx="9.61" ry="3.04" style="fill:none;stroke:#9aa8c1;stroke-linecap:round;stroke-linejoin:round"/><line x1="41.36" y1="63.07" x2="41.36" y2="64.48" style="fill:none;stroke:#fff;stroke-linecap:round;stroke-miterlimit:10"/><line x1="42.98" y1="62.37" x2="42.98" y2="63.78" style="fill:none;stroke:#fff;stroke-linecap:round;stroke-miterlimit:10"/><path d="M23.44,55.61V60c0,1.68,4.3,3,9.61,3s9.61-1.36,9.61-3V55.61H23.44Z" style="fill:#fcf3c0"/><path d="M26.82,55.61H23.44V60c0,0.93,1.31,1.76,3.38,2.31V55.61Z" style="fill:#2a4d8e;opacity:0.11"/><path d="M23.44,55.61V60c0,1.68,4.3,3,9.61,3s9.61-1.36,9.61-3V55.61H23.44Z" style="fill:none;stroke:#9aa8c1;stroke-linecap:round;stroke-linejoin:round"/><ellipse cx="33.05" cy="55.61" rx="9.61" ry="3.04" style="fill:#fcf3c0"/><ellipse cx="33.05" cy="55.61" rx="9.61" ry="3.04" style="fill:none;stroke:#9aa8c1;stroke-linecap:round;stroke-linejoin:round"/><line x1="39.52" y1="59.34" x2="39.52" y2="60.75" style="fill:none;stroke:#fff;stroke-linecap:round;stroke-miterlimit:10"/><line x1="41.15" y1="58.65" x2="41.15" y2="60.06" style="fill:none;stroke:#fff;stroke-linecap:round;stroke-miterlimit:10"/><rect x="53.61" y="9.63" width="52.81" height="75.67" rx="3" ry="3" style="fill:#fff"/><path d="M103.42,9.63H56.61a3,3,0,0,0-3,3V24.9h52.81V12.63A3,3,0,0,0,103.42,9.63Z" style="fill:#c8e8de"/><rect x="53.61" y="9.63" width="52.81" height="75.67" rx="3" ry="3" style="fill:none;stroke:#9aa8c1;stroke-linecap:round;stroke-linejoin:round"/><line x1="63.01" y1="39.53" x2="96.99" y2="39.53" style="fill:none;stroke:#9aa8c1;stroke-linecap:round;stroke-linejoin:round"/><line x1="53.58" y1="24.9" x2="106.42" y2="24.9" style="fill:none;stroke:#9aa8c1;stroke-linecap:round;stroke-linejoin:round"/><line x1="63.01" y1="48.64" x2="96.99" y2="48.64" style="fill:none;stroke:#9aa8c1;stroke-linecap:round;stroke-linejoin:round"/><line x1="63.01" y1="57.74" x2="96.99" y2="57.74" style="fill:none;stroke:#9aa8c1;stroke-linecap:round;stroke-linejoin:round"/><rect x="62.58" y="66.5" width="34.42" height="7.97" rx="2" ry="2" style="fill:#c8e8de"/><rect x="62.58" y="66.5" width="34.42" height="7.97" rx="2" ry="2" style="fill:none;stroke:#9aa8c1;stroke-linecap:round;stroke-linejoin:round"/><path d="M91.29,71.55L89.22,70.2a0.44,0.44,0,0,0-.67.43l0.35,2.45a0.44,0.44,0,0,0,.81.16l0.22-.37,0.56,0.88a0.44,0.44,0,1,0,.74-0.47l-0.56-.88,0.42,0A0.44,0.44,0,0,0,91.29,71.55Z" style="fill:#2a4d8e;opacity:0.08"/><path d="M91.31,71l-1.79-1.17a0.38,0.38,0,0,0-.58.37l0.31,2.12a0.38,0.38,0,0,0,.7.14l0.19-.32,0.48,0.76a0.38,0.38,0,0,0,.64-0.41l-0.48-.76,0.37,0A0.38,0.38,0,0,0,91.31,71Z" style="fill:#9aa8c1"/></svg>