<svg id="Layer_1" data-name="Layer 1" xmlns="http://www.w3.org/2000/svg" viewBox="0 0 160 90"><title>ip</title><path d="M9.2,61.22l6.91-3a7.56,7.56,0,1,0,0,5.92Z" style="fill:#fcf3c0"/><path d="M9.2,61.22l6.91-3a7.56,7.56,0,1,0,0,5.92Z" style="fill:none;stroke:#9aa8c1;stroke-linecap:round;stroke-linejoin:round"/><circle cx="20.69" cy="61.22" r="1" style="fill:#9aa8c1"/><circle cx="140.57" cy="61.22" r="1" style="fill:#9aa8c1"/><circle cx="148.57" cy="61.22" r="1" style="fill:#9aa8c1"/><circle cx="156.57" cy="61.22" r="1" style="fill:#9aa8c1"/><ellipse cx="80" cy="83.1" rx="63.88" ry="4.44" style="fill:#2a4d8e;opacity:0.08"/><rect x="24.3" y="9.7" width="111.41" height="73.4" rx="3" ry="3" style="fill:#d4dce8"/><path d="M132.79,9.7H27.21a2.91,2.91,0,0,0-2.91,2.91v5.63H135.7V12.61A2.91,2.91,0,0,0,132.79,9.7Z" style="fill:#fff"/><rect x="24.3" y="9.7" width="111.41" height="73.4" rx="3" ry="3" style="fill:none;stroke:#9aa8c1;stroke-linecap:round;stroke-linejoin:round"/><line x1="24.3" y1="18.24" x2="135.7" y2="18.24" style="fill:none;stroke:#9aa8c1;stroke-linecap:round;stroke-linejoin:round"/><circle cx="29.17" cy="13.97" r="1.11" style="fill:#9aa8c1"/><circle cx="33.14" cy="13.97" r="1.11" style="fill:#9aa8c1"/><circle cx="37.11" cy="13.97" r="1.11" style="fill:#9aa8c1"/><line x1="31.42" y1="28.16" x2="35.07" y2="28.16" style="fill:none;stroke:#f9c7c0;stroke-linecap:round;stroke-linejoin:round;stroke-width:2px"/><line x1="86.88" y1="28.16" x2="90.53" y2="28.16" style="fill:none;stroke:#f9c7c0;stroke-linecap:round;stroke-linejoin:round;stroke-width:2px"/><line x1="40.21" y1="28.16" x2="81.54" y2="28.16" style="fill:none;stroke:#fff;stroke-linecap:round;stroke-linejoin:round;stroke-width:2px"/><line x1="31.42" y1="57.26" x2="35.07" y2="57.26" style="fill:none;stroke:#f9c7c0;stroke-linecap:round;stroke-linejoin:round;stroke-width:2px"/><line x1="59.05" y1="57.26" x2="62.7" y2="57.26" style="fill:none;stroke:#f9c7c0;stroke-linecap:round;stroke-linejoin:round;stroke-width:2px"/><line x1="40.21" y1="57.26" x2="54.13" y2="57.26" style="fill:none;stroke:#fff;stroke-linecap:round;stroke-linejoin:round;stroke-width:2px"/><line x1="31.42" y1="63.08" x2="35.07" y2="63.08" style="fill:none;stroke:#fff;stroke-linecap:round;stroke-linejoin:round;stroke-width:2px"/><line x1="40.21" y1="63.08" x2="81.54" y2="63.08" style="fill:none;stroke:#fff;stroke-linecap:round;stroke-linejoin:round;stroke-width:2px"/><line x1="35.81" y1="33.98" x2="39.46" y2="33.98" style="fill:none;stroke:#fcf3c0;stroke-linecap:round;stroke-linejoin:round;stroke-width:2px"/><line x1="44.61" y1="33.98" x2="73.09" y2="33.98" style="fill:none;stroke:#c8e8de;stroke-linecap:round;stroke-linejoin:round;stroke-width:2px"/><line x1="79.11" y1="33.98" x2="122.11" y2="33.98" style="fill:none;stroke:#f9ece8;stroke-linecap:round;stroke-linejoin:round;stroke-width:2px"/><line x1="35.81" y1="39.8" x2="39.46" y2="39.8" style="fill:none;stroke:#fcf3c0;stroke-linecap:round;stroke-linejoin:round;stroke-width:2px"/><line x1="111.12" y1="39.8" x2="114.77" y2="39.8" style="fill:none;stroke:#fcf3c0;stroke-linecap:round;stroke-linejoin:round;stroke-width:2px"/><line x1="44.61" y1="39.8" x2="106.27" y2="39.8" style="fill:none;stroke:#fff;stroke-linecap:round;stroke-linejoin:round;stroke-width:2px"/><line x1="35.81" y1="45.62" x2="39.46" y2="45.62" style="fill:none;stroke:#c8e8de;stroke-linecap:round;stroke-linejoin:round;stroke-width:2px"/><line x1="44.61" y1="45.62" x2="90.91" y2="45.62" style="fill:none;stroke:#fff;stroke-linecap:round;stroke-linejoin:round;stroke-width:2px"/><line x1="35.81" y1="68.9" x2="39.46" y2="68.9" style="fill:none;stroke:#f9ece8;stroke-linecap:round;stroke-linejoin:round;stroke-width:2px"/><line x1="44.61" y1="68.9" x2="90.91" y2="68.9" style="fill:none;stroke:#fff;stroke-linecap:round;stroke-linejoin:round;stroke-width:2px"/><line x1="35.81" y1="74.72" x2="39.46" y2="74.72" style="fill:none;stroke:#fcf3c0;stroke-linecap:round;stroke-linejoin:round;stroke-width:2px"/><line x1="44.61" y1="74.72" x2="90.91" y2="74.72" style="fill:none;stroke:#fff;stroke-linecap:round;stroke-linejoin:round;stroke-width:2px"/><line x1="35.81" y1="51.44" x2="39.46" y2="51.44" style="fill:none;stroke:#f9c7c0;stroke-linecap:round;stroke-linejoin:round;stroke-width:2px"/><line x1="104.44" y1="51.44" x2="108.09" y2="51.44" style="fill:none;stroke:#f9c7c0;stroke-linecap:round;stroke-linejoin:round;stroke-width:2px"/><line x1="44.61" y1="51.44" x2="99.41" y2="51.44" style="fill:none;stroke:#fff;stroke-linecap:round;stroke-linejoin:round;stroke-width:2px"/></svg>