<svg id="Layer_1" data-name="Layer 1" xmlns="http://www.w3.org/2000/svg" viewBox="0 0 576 160.46"><defs><style>.cls-1{fill:#fff;}.cls-2{fill:#2a4d8e;}.cls-3{fill:#44d5fc;opacity:0.15;}.cls-3,.cls-4,.cls-7{isolation:isolate;}.cls-4{fill:#000102;opacity:0.06;}.cls-5{fill:#459cbe;fill-opacity:0;}.cls-6{fill:none;}.cls-7{fill:#021833;opacity:0.24;}.cls-8{fill:#00aae6;}</style></defs><title>inplayer-logo-new-white-hex</title><path class="cls-1" d="M401.46,57.62c-15.64,0-28.06,13.42-28.06,29.81s12.66,29.81,28.06,29.81a27.38,27.38,0,0,0,20.62-9.44v8.44h7.45V87.43C429.53,71,416.86,57.62,401.46,57.62Zm0,52.17c-11.42,0-20.61-9.94-20.61-22.36S390,65.08,401.46,65.08,422.08,75,422.08,87.43,412.89,109.79,401.46,109.79Z" transform="translate(-12)"/><path class="cls-1" d="M540.06,104.07a19.51,19.51,0,0,1-13.91,5.72,21.27,21.27,0,0,1-19.62-14.91h46.94a38.1,38.1,0,0,0,1-7.45c0-16.39-12.67-29.81-28.07-29.81S498.33,71,498.33,87.43,511,117.24,526.4,117.24a27.4,27.4,0,0,0,23.35-13.17Zm-13.91-39c11.43,0,20.62,9.93,20.62,22.35H505.29C505.54,75,514.73,65.08,526.15,65.08Z" transform="translate(-12)"/><path class="cls-1" d="M310.06,57.62C294.41,57.62,282,71,282,87.43v57.63h7.45V107.8a27.62,27.62,0,0,0,20.62,9.69c15.65,0,28.07-13.42,28.07-29.81S325.46,57.62,310.06,57.62Zm0,52.17c-11.43,0-20.62-9.94-20.62-22.36s9.19-22.35,20.62-22.35S330.68,75,330.68,87.43,321.49,109.79,310.06,109.79Z" transform="translate(-12)"/><path class="cls-1" d="M480,58.62v33c0,9.94-7.45,18.14-16.64,18.14s-16.64-8.2-16.64-18.14v-33h-7.45v33c0,14.16,10.93,25.59,24.09,25.59A23.77,23.77,0,0,0,480,110v5c0,12.42-9.19,22.36-20.61,22.36v7.45c15.65,0,28.06-13.42,28.06-29.81V58.62Z" transform="translate(-12)"/><rect class="cls-1" x="193.74" y="58.62" width="7.45" height="57.38"/><path class="cls-1" d="M248.46,57.62c-13.41,0-24.09,11.43-24.09,25.59v33h7.45v-33c0-9.94,7.45-18.13,16.64-18.13s16.64,8.19,16.64,18.13v33h7.45v-33C272.55,69.05,261.87,57.62,248.46,57.62Z" transform="translate(-12)"/><path class="cls-1" d="M563.91,83.21v33h7.45v-33c0-9.94,7.45-18.13,16.64-18.13V57.62C574.84,57.62,563.91,69.05,563.91,83.21Z" transform="translate(-12)"/><path class="cls-1" d="M367.93,109.79A14.81,14.81,0,0,1,354,94.63v-.24h0V29.81h-7.45V94.39h0v.24a22.12,22.12,0,0,0,21.36,22.61h.5v-7.45Z" transform="translate(-12)"/><polygon class="cls-1" points="193.74 32.79 205.66 39.74 193.74 46.7 193.74 32.79"/><polygon class="cls-2" points="120.47 10.93 160.46 80.23 120.47 149.78 40.24 149.78 0.25 80.23 40.24 10.93 120.47 10.93"/><polygon class="cls-3" points="40.24 149.78 80.23 80.23 40.24 10.93 0.25 80.23 40.24 149.78"/><polygon class="cls-4" points="160.46 80.23 80.23 80.23 40.24 149.78 120.47 149.78 160.46 80.23"/><circle class="cls-5" cx="80.23" cy="80.23" r="39.99"/><circle class="cls-6" cx="80.23" cy="80.23" r="80.23"/><circle class="cls-6" cx="80.23" cy="80.23" r="80.23"/><polygon class="cls-7" points="109.49 118.67 60.41 114.93 40.25 84.44 61.28 46.35 108.03 49.02 120.21 78.21 109.49 118.67"/><circle class="cls-5" cx="80.23" cy="80.23" r="39.99"/><polygon class="cls-8" points="100.35 115 60.36 115 40.24 80.23 60.36 45.7 100.35 45.7 120.47 80.23 100.35 115"/><polygon class="cls-1" points="90.41 97.61 60.36 115 60.36 80.23 60.36 45.7 90.41 63.09 120.47 80.23 90.41 97.61"/></svg>