<svg id="Layer_1" data-name="Layer 1" xmlns="http://www.w3.org/2000/svg" viewBox="0 0 80 60"><title>ip</title><path d="M25.3,44.48H18.8c-9.08,0-.45-2.56-5.12-2.89S0.88,41.92,2.13,45,10,49.09,10,49.09" style="fill:none;stroke:#9aa8c1;stroke-linecap:round;stroke-linejoin:round"/><polygon points="53.1 20.33 65.52 26.76 65.52 22.07 64.99 20.59 53.1 20.33" style="fill:#2a4d8e;opacity:0.11"/><path d="M51.64,8.18L34.71,7.42A2.28,2.28,0,0,0,32.43,9.7V50.3a2.28,2.28,0,0,0,2.28,2.28l28.53-.76a2.28,2.28,0,0,0,2.28-2.28V22.07a2.28,2.28,0,0,0-.67-1.61L53.25,8.85A2.28,2.28,0,0,0,51.64,8.18Z" style="fill:none;stroke:#9aa8c1;stroke-linecap:round;stroke-linejoin:round"/><path d="M65,20.59L53.25,8.85l-0.15.06V19.09a1.52,1.52,0,0,0,1.52,1.52H65v0Z" style="fill:#d4dce8;stroke:#9aa8c1;stroke-linecap:round;stroke-linejoin:round"/><polygon points="34.71 7.42 34.71 7.42 34.71 7.42 34.71 7.42" style="fill:none;stroke:#9aa8c1;stroke-linecap:round;stroke-linejoin:round"/><path d="M32.43,50.3V9.7a2.27,2.27,0,0,1,1.25-2l-3.38.84a2.28,2.28,0,0,0-1.73,2.21V49.27a2.28,2.28,0,0,0,1.73,2.21l3.38,0.84A2.27,2.27,0,0,1,32.43,50.3Z" style="fill:none;stroke:#9aa8c1;stroke-linecap:round;stroke-linejoin:round"/><polygon points="34.71 52.58 34.71 52.58 34.71 52.58 34.71 52.58" style="fill:none;stroke:#9aa8c1;stroke-linecap:round;stroke-linejoin:round"/><polyline points="45.73 38.2 41.63 34.11 45.73 30.01" style="fill:none;stroke:#9aa8c1;stroke-linecap:round;stroke-linejoin:round"/><polyline points="53.75 30.01 57.84 34.11 53.75 38.2" style="fill:none;stroke:#9aa8c1;stroke-linecap:round;stroke-linejoin:round"/><line x1="51.7" y1="27.11" x2="47.72" y2="41.16" style="fill:none;stroke:#9aa8c1;stroke-linecap:round;stroke-linejoin:round"/><polygon points="22.41 46.8 22.41 42.16 25.3 42.16 27.18 41.16 30.6 41.16 30.6 47.8 27.18 47.8 25.3 46.8 22.41 46.8" style="fill:#fff"/><ellipse cx="11.38" cy="49.37" rx="4.83" ry="3.2" style="fill:#fff"/><circle cx="9.94" cy="49.37" r="0.78" style="fill:#9aa8c1"/><circle cx="12.82" cy="49.37" r="0.78" style="fill:#9aa8c1"/><polygon points="22.41 46.8 22.41 42.16 25.3 42.16 27.18 41.16 30.6 41.16 30.6 47.8 27.18 47.8 25.3 46.8 22.41 46.8" style="fill:none;stroke:#9aa8c1;stroke-linecap:round;stroke-linejoin:round"/><ellipse cx="11.38" cy="49.37" rx="4.83" ry="3.2" style="fill:none;stroke:#9aa8c1;stroke-linecap:round;stroke-linejoin:round"/></svg>