<svg id="Layer_1" data-name="Layer 1" xmlns="http://www.w3.org/2000/svg" viewBox="0 0 160 90"><path d="M111.48,36.27a6,6,0,1,0,0-12H44.62v12h66.86Z" style="fill:#fff"/><path d="M111.48,26.78a6,6,0,0,1,5.88,4.74q0.06-.3.1-0.61v0a5.9,5.9,0,0,0,0-.65,6,6,0,0,0-6-6H44.62v2.55h66.86Z" style="fill:#2a4d8e;opacity:0.11"/><path d="M136.12,42.82h0A2.18,2.18,0,0,1,133.93,45H30.4a6,6,0,0,0-6,6h0a6,6,0,0,0,6,6H133.93a2.18,2.18,0,0,1,2.18,2.18h0a2.18,2.18,0,0,1-2.18,2.18H30.4A10.38,10.38,0,0,1,20,51h0A10.38,10.38,0,0,1,30.4,40.63H133.93A2.18,2.18,0,0,1,136.12,42.82Z" style="fill:#fcf3c0"/><rect x="42.2" y="50.44" width="2.25" height="10.96" style="fill:#2a4d8e;opacity:0.11"/><ellipse cx="78.9" cy="83.5" rx="62.16" ry="4.32" style="fill:#2a4d8e;opacity:0.08"/><rect x="30.23" y="61.4" width="95.67" height="22.1" style="fill:#dae5be"/><rect x="92.01" y="61.4" width="14.99" height="22.1" style="fill:#fff"/><path d="M30.23,67.55H41.16V73a0.74,0.74,0,0,0,1.15.61l5.77-3.85,5.77,3.85A0.74,0.74,0,0,0,55,73V67.55h70.9V61.4H30.23v6.15Z" style="fill:#2a4d8e;opacity:0.11"/><rect x="30.23" y="61.4" width="95.67" height="22.1" style="fill:none;stroke:#9aa8c1;stroke-linecap:round;stroke-linejoin:round"/><rect x="92.01" y="61.4" width="14.99" height="22.1" style="fill:none;stroke:#9aa8c1;stroke-linecap:round;stroke-linejoin:round"/><path d="M136.12,42.82h0A2.18,2.18,0,0,1,133.93,45H30.4a6,6,0,0,0-6,6h0a6,6,0,0,0,6,6H133.93a2.18,2.18,0,0,1,2.18,2.18h0a2.18,2.18,0,0,1-2.18,2.18H30.4A10.38,10.38,0,0,1,20,51h0A10.38,10.38,0,0,1,30.4,40.63H133.93A2.18,2.18,0,0,1,136.12,42.82Z" style="fill:none;stroke:#9aa8c1;stroke-linecap:round;stroke-linejoin:round"/><line x1="129.83" y1="45" x2="129.83" y2="57.03" style="fill:none;stroke:#9aa8c1;stroke-linecap:round;stroke-linejoin:round"/><path d="M55.87,67.12L50.44,63.5,45,67.12a0.7,0.7,0,0,1-1.08-.58V50.44h13v16.1A0.7,0.7,0,0,1,55.87,67.12Z" style="fill:#e3d1ed"/><path d="M55.87,67.12L50.44,63.5,45,67.12a0.7,0.7,0,0,1-1.08-.58V50.44h13v16.1A0.7,0.7,0,0,1,55.87,67.12Z" style="fill:none;stroke:#9aa8c1;stroke-linecap:round;stroke-linejoin:round"/><line x1="36.58" y1="50.44" x2="68.48" y2="50.44" style="fill:none;stroke:#9aa8c1;stroke-linecap:round;stroke-linejoin:round"/><line x1="50.44" y1="50.44" x2="50.44" y2="58.17" style="fill:none;stroke:#9aa8c1;stroke-linecap:round;stroke-linejoin:round"/><path d="M61.29,12.26s-9.6-.25-9.85,1.83S53,19.87,53,19.87" style="fill:none;stroke:#9aa8c1;stroke-linecap:round;stroke-linejoin:round"/><path d="M91.71,12.26s-4.54-.25-4.66,1.83a27.49,27.49,0,0,0,.75,5.78" style="fill:none;stroke:#2a4d8e;stroke-linecap:round;stroke-linejoin:round;opacity:0.11"/><path d="M75,13a1.6,1.6,0,0,1,3,0" style="fill:none;stroke:#9aa8c1;stroke-linecap:round;stroke-linejoin:round"/><path d="M75,13a6.87,6.87,0,1,1-13.73,0c0-3.79,3.07-5.7,6.87-5.7S75,9.21,75,13Z" style="fill:#2a4d8e;opacity:0.11"/><polyline points="70.54 8.97 66.91 12.97 70.57 12.46 65.5 18.28" style="fill:none;stroke:#fff;stroke-linecap:round;stroke-linejoin:round;stroke-width:2px"/><path d="M91.79,13a6.87,6.87,0,1,1-13.73,0c0-3.79,3.07-5.7,6.87-5.7S91.79,9.21,91.79,13Z" style="fill:#2a4d8e;opacity:0.11"/><path d="M75,13a6.87,6.87,0,1,1-13.73,0c0-3.79,3.07-5.7,6.87-5.7S75,9.21,75,13Z" style="fill:none;stroke:#9aa8c1;stroke-linecap:round;stroke-linejoin:round"/><polyline points="87.72 8.97 84.1 12.97 87.76 12.46 82.68 18.28" style="fill:none;stroke:#fff;stroke-linecap:round;stroke-linejoin:round;stroke-width:2px"/><path d="M91.79,13a6.87,6.87,0,1,1-13.73,0c0-3.79,3.07-5.7,6.87-5.7S91.79,9.21,91.79,13Z" style="fill:none;stroke:#9aa8c1;stroke-linecap:round;stroke-linejoin:round"/><path d="M38.33,22.05h0a2.18,2.18,0,0,0,2.18,2.18h71a6,6,0,0,1,6,6h0a6,6,0,0,1-6,6h-71a2.18,2.18,0,0,0-2.18,2.18h0a2.18,2.18,0,0,0,2.18,2.18h71a10.38,10.38,0,0,0,10.38-10.38h0a10.38,10.38,0,0,0-10.38-10.38h-71A2.18,2.18,0,0,0,38.33,22.05Z" style="fill:#f9c7c0"/><path d="M38.33,22.05h0a2.18,2.18,0,0,0,2.18,2.18h71a6,6,0,0,1,6,6h0a6,6,0,0,1-6,6h-71a2.18,2.18,0,0,0-2.18,2.18h0a2.18,2.18,0,0,0,2.18,2.18h71a10.38,10.38,0,0,0,10.38-10.38h0a10.38,10.38,0,0,0-10.38-10.38h-71A2.18,2.18,0,0,0,38.33,22.05Z" style="fill:none;stroke:#9aa8c1;stroke-linecap:round;stroke-linejoin:round"/><line x1="44.62" y1="24.24" x2="44.62" y2="36.27" style="fill:none;stroke:#9aa8c1;stroke-linecap:round;stroke-linejoin:round"/></svg>