<svg id="Layer_1" data-name="Layer 1" xmlns="http://www.w3.org/2000/svg" viewBox="0 0 160 90"><ellipse cx="80" cy="80.3" rx="65.26" ry="4.53" style="fill:#2a4d8e;opacity:0.08"/><rect x="20.98" y="4.63" width="114.86" height="75.67" rx="3" ry="3" style="fill:#fff"/><line x1="28.65" y1="46.87" x2="135.84" y2="46.87" style="fill:none;stroke:#f0f3f6;stroke-linecap:round;stroke-linejoin:round;stroke-width:2px"/><path d="M21,13.43V77.3a3,3,0,0,0,3,3h5V13.43H21Z" style="fill:#d4dce8"/><path d="M132.84,4.63H24a3,3,0,0,0-3,3v5.8H135.84V7.63A3,3,0,0,0,132.84,4.63Z" style="fill:#dbdbdb"/><rect x="20.98" y="4.63" width="114.86" height="75.67" rx="3" ry="3" style="fill:none;stroke:#9aa8c1;stroke-linecap:round;stroke-linejoin:round"/><line x1="20.98" y1="13.43" x2="135.84" y2="13.43" style="fill:none;stroke:#9aa8c1;stroke-linecap:round;stroke-linejoin:round"/><circle cx="26.01" cy="9.03" r="1.14" style="fill:#9aa8c1"/><circle cx="30.11" cy="9.03" r="1.14" style="fill:#9aa8c1"/><circle cx="34.2" cy="9.03" r="1.14" style="fill:#9aa8c1"/><polyline points="37.93 65.66 44.02 69.66 50.11 64.12 55.47 70.89 63.63 73.05 68.39 65.35 74.49 59.81 80.58 63.66 86.67 57.35 92.77 62.86 98.86 63.51 104.95 56.58 111.05 63.74 117.14 54.58 123.23 56.58 129.33 52.12" style="fill:none;stroke:#c8e8de;stroke-linecap:round;stroke-linejoin:round;stroke-width:2px"/><line x1="37.93" y1="65.66" x2="39.93" y2="65.66" style="fill:none;stroke:#dbdbdb;stroke-linecap:round;stroke-linejoin:round"/><line x1="44.09" y1="65.66" x2="125.25" y2="65.66" style="fill:none;stroke:#dbdbdb;stroke-linecap:round;stroke-linejoin:round;stroke-dasharray:4.161891460418701,4.161891460418701"/><line x1="127.33" y1="65.66" x2="129.33" y2="65.66" style="fill:none;stroke:#dbdbdb;stroke-linecap:round;stroke-linejoin:round"/><circle cx="56.24" cy="30.11" r="11.56" style="fill:none;stroke:#f0f3f6;stroke-linecap:round;stroke-linejoin:round;stroke-width:2px"/><path d="M56.24,18.55A11.56,11.56,0,1,1,45.74,35" style="fill:none;stroke:#d4dce8;stroke-linecap:round;stroke-linejoin:round;stroke-width:2px"/><path d="M56.24,18.55a11.57,11.57,0,0,1,6.91,20.84" style="fill:none;stroke:#f9c7c0;stroke-linecap:round;stroke-linejoin:round;stroke-width:2px"/><path d="M135.84,21.29H88.94a4,4,0,0,0-4,4V59.63a4,4,0,0,0,4,4h46.9V21.29Z" style="fill:#2a4d8e;opacity:0.11"/><rect x="89.88" y="16.29" width="64.27" height="42.34" rx="3" ry="3" style="fill:#fff"/><rect x="89.88" y="16.29" width="64.27" height="42.34" rx="3" ry="3" style="fill:none;stroke:#9aa8c1;stroke-linecap:round;stroke-linejoin:round"/><path d="M29.75,86.79H11.86a1.33,1.33,0,0,1-1.32-1.2L7.11,51.77H34.5L31.07,85.6A1.33,1.33,0,0,1,29.75,86.79Z" style="fill:#f0f3f6"/><polygon points="31.99 76.56 33.7 59.7 7.91 59.7 9.62 76.56 31.99 76.56" style="fill:#fcf3c0"/><circle cx="20.8" cy="68.13" r="6.11" style="fill:#fff"/><path d="M36.25,51.77H5.43a1.33,1.33,0,0,1-1.32-1.48l0.58-5.05A1.33,1.33,0,0,1,6,44.06H35.67A1.33,1.33,0,0,1,37,45.23l0.58,5.05A1.33,1.33,0,0,1,36.25,51.77Z" style="fill:#fff"/><path d="M8.91,44.06H33.06V42.29A1.33,1.33,0,0,0,31.82,41L10.34,39.38a1.33,1.33,0,0,0-1.43,1.33v3.35Z" style="fill:#fff"/><path d="M16.47,70.34a6.1,6.1,0,0,1,9.86-4.82,6.1,6.1,0,1,0-9.27,7.42A6.07,6.07,0,0,1,16.47,70.34Z" style="fill:#2a4d8e;opacity:0.11"/><path d="M6,44.06a1.33,1.33,0,0,0-1.32,1.18L4.11,50.29a1.33,1.33,0,0,0,1.32,1.48h4.68a18.86,18.86,0,0,1,1.25-7.71H6Z" style="fill:#2a4d8e;opacity:0.11"/><path d="M7.11,51.77L10.54,85.6a1.33,1.33,0,0,0,1.32,1.2H15C14.47,79.89,13.51,67.94,13.16,62a19.2,19.2,0,0,1,2.08-10.25H7.11Z" style="fill:#2a4d8e;opacity:0.11"/><path d="M9.62,76.56L10,80.3c2.53-2.82,21.78-1.71,21.78-1.71l0.21-2H9.62Z" style="fill:#2a4d8e;opacity:0.11"/><path d="M7.1,51.77l0.46,4.58c3.1-3.45,26.7-2.1,26.7-2.1l0.25-2.49H7.1Z" style="fill:#2a4d8e;opacity:0.11"/><path d="M36.25,51.77H5.43a1.33,1.33,0,0,1-1.32-1.48l0.58-5.05A1.33,1.33,0,0,1,6,44.06H35.67A1.33,1.33,0,0,1,37,45.23l0.58,5.05A1.33,1.33,0,0,1,36.25,51.77Z" style="fill:none;stroke:#9aa8c1;stroke-linecap:round;stroke-linejoin:round"/><circle cx="20.8" cy="68.13" r="6.11" style="fill:none;stroke:#9aa8c1;stroke-linecap:round;stroke-linejoin:round"/><polygon points="31.99 76.56 33.7 59.7 7.91 59.7 9.62 76.56 31.99 76.56" style="fill:none;stroke:#9aa8c1;stroke-linecap:round;stroke-linejoin:round"/><path d="M29.75,86.79H11.86a1.33,1.33,0,0,1-1.32-1.2L7.11,51.77H34.5L31.07,85.6A1.33,1.33,0,0,1,29.75,86.79Z" style="fill:none;stroke:#9aa8c1;stroke-linecap:round;stroke-linejoin:round"/><path d="M15.47,39.76l-5.13-.38a1.31,1.31,0,0,0-.72.16L8.91,41.07v3h4.87s0.57-3.33,1.69-4.3h0Z" style="fill:#2a4d8e;opacity:0.11"/><path d="M8.91,44.06H33.06V42.29A1.33,1.33,0,0,0,31.82,41L10.34,39.38a1.33,1.33,0,0,0-1.43,1.33v3.35Z" style="fill:none;stroke:#9aa8c1;stroke-linecap:round;stroke-linejoin:round"/><path d="M11.15,37.65a3.37,3.37,0,0,0,0-4L11,33.46a3.37,3.37,0,0,1,0-4h0a3.37,3.37,0,0,0-.2-4.24" style="fill:none;stroke:#2a4d8e;stroke-linecap:round;stroke-linejoin:round;opacity:0.11"/><path d="M14.15,29.94a3.37,3.37,0,0,0,0-4L14,25.75a3.37,3.37,0,0,1,0-4h0" style="fill:none;stroke:#2a4d8e;stroke-linecap:round;stroke-linejoin:round;opacity:0.11"/><line x1="102.69" y1="41.62" x2="102.69" y2="48.4" style="fill:none;stroke:#c8e8de;stroke-linecap:round;stroke-linejoin:round;stroke-width:2px"/><line x1="110.42" y1="34.85" x2="110.42" y2="48.4" style="fill:none;stroke:#e3d1ed;stroke-linecap:round;stroke-linejoin:round;stroke-width:2px"/><line x1="118.15" y1="38.39" x2="118.15" y2="48.4" style="fill:none;stroke:#d4dce8;stroke-linecap:round;stroke-linejoin:round;stroke-width:2px"/><line x1="125.88" y1="30.7" x2="125.88" y2="48.4" style="fill:none;stroke:#f9c7c0;stroke-linecap:round;stroke-linejoin:round;stroke-width:2px"/><line x1="141.34" y1="26.7" x2="141.34" y2="48.4" style="fill:none;stroke:#dbdbdb;stroke-linecap:round;stroke-linejoin:round;stroke-width:2px"/><line x1="133.61" y1="32.79" x2="133.61" y2="48.4" style="fill:none;stroke:#c2e6ef;stroke-linecap:round;stroke-linejoin:round;stroke-width:2px"/><ellipse cx="20.51" cy="86.79" rx="15.73" ry="1.79" style="fill:#2a4d8e;opacity:0.08"/></svg>