<svg xmlns="http://www.w3.org/2000/svg" viewBox="0 0 174 48"><g style="isolation:isolate"><path d="M117.14 17.27a8.67 8.67 0 0 0-8.4 8.92 8.67 8.67 0 0 0 8.4 8.92 8.17 8.17 0 0 0 6.17-2.87v2.53h2.23v-8.58a8.67 8.67 0 0 0-8.4-8.92zm0 15.61a6.45 6.45 0 0 1-6.14-6.69 6.19 6.19 0 1 1 12.35 0 6.45 6.45 0 0 1-6.21 6.69zm41.35-1.72a5.89 5.89 0 0 1-4.12 1.72 6.24 6.24 0 0 1-5.82-4.46h14a9.45 9.45 0 0 0 .26-2.23 8.42 8.42 0 1 0-16.81 0 8.67 8.67 0 0 0 8.4 8.92 8.28 8.28 0 0 0 7-3.94h-2.85zm-4.12-11.66a6.45 6.45 0 0 1 6.17 6.69h-12.35a6.45 6.45 0 0 1 6.18-6.69zm-64.5-2.23a8.67 8.67 0 0 0-8.4 8.92v17.15h2.23v-11.1a8.17 8.17 0 0 0 6.17 2.87 8.67 8.67 0 0 0 8.4-8.92 8.67 8.67 0 0 0-8.4-8.92zm0 15.61a6.45 6.45 0 0 1-6.17-6.69 6.19 6.19 0 1 1 12.35 0 6.45 6.45 0 0 1-6.18 6.69zm50.71-15.27v9.85a5 5 0 1 1-9.95 0v-9.85h-2.23v9.85a7.43 7.43 0 0 0 7.2 7.64 7 7 0 0 0 5-2.12v1.43a6.45 6.45 0 0 1-6.17 6.69v2.23a8.67 8.67 0 0 0 8.4-8.92v-16.8h-2.23zm-79.6 17.15h-2.23V17.61h2.23zm10.54-17.49a7.43 7.43 0 0 0-7.2 7.64v9.85h2.23v-9.85a5 5 0 1 1 9.95 0v9.85h2.23v-9.85a7.43 7.43 0 0 0-7.21-7.64zm94.12 7.64v9.85h2.23v-9.85a5.21 5.21 0 0 1 5-5.41v-2.23a7.43 7.43 0 0 0-7.23 7.64zm-58.45 7.97a4.33 4.33 0 0 1-4.12-4.5V9h-2.23v19.37a6.55 6.55 0 0 0 6.35 6.73h.17v-2.23h-.17zM58.75 9.87l3.6 2.08-3.6 2.08V9.87zm-21-6.66l12 20.79-12 20.78h-24L1.75 24l12-20.79h24z" fill="#2a4d8e"/><path fill="#00aad2" opacity=".15" d="M13.75 44.78l12-20.78-12-20.79L1.75 24l12 20.78z"/><path style="mix-blend-mode:multiply" fill="#272b38" opacity=".15" d="M49.75 24h-24l-12 20.78h24l12-20.78z"/><circle cx="25.75" cy="24" r="24" fill="none"/><circle cx="25.75" cy="24" r="24" fill="none"/><path style="mix-blend-mode:multiply" fill="#272b38" opacity=".35" d="M34.58 36l-14.83-1.61-6.22-8.82 6.22-11.96 14.38.97L37.75 24l-3.17 12z"/><path fill="#00aae6" d="M31.75 34.39h-12l-6-10.39 6-10.39h12l6 10.39-6 10.39z"/><path fill="#fff" d="M28.75 29.2l-9 5.19V13.61l9 5.19 9 5.2-9 5.2z"/></g></svg>