<svg version="1.1" id="Layer_1" xmlns="http://www.w3.org/2000/svg" x="0" y="0" viewBox="0 0 174 48" xml:space="preserve"><style>.st0{fill:#fff}.st4{fill:#449bbc;fill-opacity:0}.st5{fill:none}</style><path class="st0" d="M117.1 17.3c-4.8.1-8.5 4.1-8.4 8.9-.1 4.8 3.6 8.8 8.4 8.9 2.4 0 4.6-1.1 6.2-2.9v2.5h2.2v-8.6c.2-4.7-3.6-8.7-8.4-8.8zm0 15.6c-3.5-.2-6.3-3.2-6.1-6.7-.2-3.4 2.3-6.4 5.7-6.6 3.4-.2 6.4 2.3 6.6 5.7v.9c.2 3.5-2.6 6.5-6.2 6.7zm41.4-1.7c-1.1 1.1-2.6 1.7-4.1 1.7-2.7-.1-5.1-1.9-5.8-4.5h14c.2-.7.3-1.5.3-2.2.3-4.6-3.3-8.6-7.9-8.9s-8.6 3.3-8.9 7.9v1c-.1 4.8 3.6 8.8 8.4 8.9 2.9 0 5.5-1.5 7-3.9h-3zm-4.1-11.7c3.5.2 6.3 3.1 6.2 6.7h-12.3c-.2-3.6 2.5-6.6 6.1-6.7zm-64.5-2.2c-4.8.1-8.5 4.1-8.4 8.9v17.1h2.2V32.2c1.5 1.8 3.8 2.9 6.2 2.9 4.8-.1 8.5-4.1 8.4-8.9.1-4.8-3.6-8.8-8.4-8.9zm0 15.6c-3.5-.2-6.3-3.1-6.2-6.7-.2-3.4 2.3-6.4 5.7-6.6 3.4-.2 6.4 2.3 6.6 5.7v.9c.2 3.5-2.6 6.5-6.1 6.7zm50.7-15.3v9.9c.3 2.7-1.7 5.2-4.5 5.5-2.7.3-5.2-1.7-5.5-4.5V17.6h-2.2v9.9c-.1 4.1 3.1 7.5 7.2 7.6 1.9 0 3.7-.8 5-2.1v1.4c.1 3.5-2.6 6.5-6.2 6.7v2.2c4.8-.1 8.5-4.1 8.4-8.9V17.6h-2.2zm-81.8 0H61v17.2h-2.2zm12.7-.3c-4.1.1-7.3 3.5-7.2 7.6v9.9h2.2v-9.9c-.3-2.7 1.7-5.2 4.5-5.5 2.7-.3 5.2 1.7 5.5 4.5v10.9h2.2v-9.9c.1-4.1-3.1-7.5-7.2-7.6zm94.1 7.6v9.9h2.2v-9.9c-.1-2.9 2.1-5.3 5-5.4v-2.2c-4 .1-7.3 3.5-7.2 7.6zm-58.4 8c-2.4-.1-4.2-2.1-4.1-4.5V9h-2.2v19.4c-.1 3.6 2.7 6.6 6.3 6.7h.2v-2.2h-.2zm-48.4-23l3.5 2-3.5 2.1z"/><path fill="#2a4d8e" d="M37.8 3.2l12 20.8-12 20.8h-24L1.8 24l12-20.8z"/><path opacity=".15" fill="#00aad2" d="M13.8 44.8l12-20.8-12-20.8L1.8 24z"/><path opacity=".15" fill="#272b38" d="M49.8 24h-24l-12 20.8h24z"/><circle class="st4" cx="25.8" cy="24" r="12"/><circle class="st5" cx="25.8" cy="24" r="24"/><circle class="st5" cx="25.8" cy="24" r="24"/><path opacity=".35" fill="#272b38" d="M34.6 36l-14.8-1.6-6.3-8.8 6.3-12 14.3 1 3.7 9.4z"/><circle class="st4" cx="25.8" cy="24" r="12"/><path fill="#00aae6" d="M31.8 34.4h-12l-6-10.4 6-10.4h12l6 10.4z"/><path class="st0" d="M28.8 29.2l-9 5.2V13.6l9 5.2 9 5.2z"/></svg>