<svg id="Layer_1" data-name="Layer 1" xmlns="http://www.w3.org/2000/svg" viewBox="0 0 576 160.46"><defs><style>.cls-1{fill:#fff}.cls-5{fill:#459cbe;fill-opacity:0}.cls-6{fill:none}</style></defs><path class="cls-1" d="M401.46 57.62c-15.64 0-28.06 13.42-28.06 29.81s12.66 29.81 28.06 29.81a27.38 27.38 0 0 0 20.62-9.44v8.44h7.45V87.43c0-16.43-12.67-29.81-28.07-29.81zm0 52.17c-11.42 0-20.61-9.94-20.61-22.36s9.15-22.35 20.61-22.35 20.62 9.92 20.62 22.35-9.19 22.36-20.62 22.36zm138.6-5.72a19.51 19.51 0 0 1-13.91 5.72 21.27 21.27 0 0 1-19.62-14.91h46.94a38.1 38.1 0 0 0 1-7.45c0-16.39-12.67-29.81-28.07-29.81S498.33 71 498.33 87.43s12.67 29.81 28.07 29.81a27.4 27.4 0 0 0 23.35-13.17zm-13.91-39c11.43 0 20.62 9.93 20.62 22.35h-41.48c.25-12.42 9.44-22.34 20.86-22.34zm-216.09-7.45C294.41 57.62 282 71 282 87.43v57.63h7.45V107.8a27.62 27.62 0 0 0 20.62 9.69c15.65 0 28.07-13.42 28.07-29.81s-12.68-30.06-28.08-30.06zm0 52.17c-11.43 0-20.62-9.94-20.62-22.36s9.19-22.35 20.62-22.35 20.62 9.92 20.62 22.35-9.19 22.36-20.62 22.36zM480 58.62v33c0 9.94-7.45 18.14-16.64 18.14s-16.64-8.2-16.64-18.14v-33h-7.45v33c0 14.16 10.93 25.59 24.09 25.59A23.77 23.77 0 0 0 480 110v5c0 12.42-9.19 22.36-20.61 22.36v7.45c15.65 0 28.06-13.42 28.06-29.81V58.62z" transform="translate(-12)"/><path class="cls-1" d="M193.74 58.62h7.45V116h-7.45z"/><path class="cls-1" d="M248.46 57.62c-13.41 0-24.09 11.43-24.09 25.59v33h7.45v-33c0-9.94 7.45-18.13 16.64-18.13s16.64 8.19 16.64 18.13v33h7.45v-33c0-14.16-10.68-25.59-24.09-25.59zm315.45 25.59v33h7.45v-33c0-9.94 7.45-18.13 16.64-18.13v-7.46c-13.16 0-24.09 11.43-24.09 25.59zm-195.98 26.58A14.81 14.81 0 0 1 354 94.63V29.81h-7.45v64.82a22.12 22.12 0 0 0 21.36 22.61h.5v-7.45z" transform="translate(-12)"/><path class="cls-1" d="M193.74 32.79l11.92 6.95-11.92 6.96V32.79z"/><path fill="#2a4d8e" d="M120.47 10.93l39.99 69.3-39.99 69.55H40.24L.25 80.23l39.99-69.3h80.23z"/><path style="isolation:isolate" fill="#44d5fc" opacity=".15" d="M40.24 149.78l39.99-69.55-39.99-69.3L.25 80.23l39.99 69.55z"/><path style="isolation:isolate" fill="#000102" opacity=".06" d="M160.46 80.23H80.23l-39.99 69.55h80.23l39.99-69.55z"/><circle class="cls-5" cx="80.23" cy="80.23" r="39.99"/><circle class="cls-6" cx="80.23" cy="80.23" r="80.23"/><circle class="cls-6" cx="80.23" cy="80.23" r="80.23"/><path style="isolation:isolate" fill="#021833" opacity=".24" d="M109.49 118.67l-49.08-3.74-20.16-30.49 21.03-38.09 46.75 2.67 12.18 29.19-10.72 40.46z"/><circle class="cls-5" cx="80.23" cy="80.23" r="39.99"/><path fill="#00aae6" d="M100.35 115H60.36L40.24 80.23 60.36 45.7h39.99l20.12 34.53L100.35 115z"/><path class="cls-1" d="M90.41 97.61L60.36 115V45.7l30.05 17.39 30.06 17.14-30.06 17.38z"/></svg>