<svg data-name="Layer 1" xmlns="http://www.w3.org/2000/svg" viewBox="0 0 80 60"><path fill="none" stroke="#9aa8c1" stroke-linecap="round" stroke-linejoin="round" d="M11.89 28.08l29.08-3.48 18.31 3.48"/><ellipse cx="35.58" cy="16.67" rx="8.13" ry="15.26" fill="#fff"/><path d="M35.79 13.05A25.4 25.4 0 0 1 28.27 12a14.78 14.78 0 0 0-.81 4.71c0 8.43 3.64 15.26 8.13 15.26s8.13-6.83 8.13-15.26a14.74 14.74 0 0 0-.78-4.61 25.54 25.54 0 0 1-7.15.95z" fill="#d4dce8"/><path fill="#2a4d8e" opacity=".11" d="M44.48 41.43l-10.82-9.18 5.18 15.29 20.44-5.87v-4.48l-14.8 4.24z"/><path fill="none" stroke="#9aa8c1" stroke-linecap="round" stroke-linejoin="round" d="M33.33 58.59L11.89 48.16V28.08l21.44 4.17v26.34zm0 0l25.95-10.43V28.08l-25.95 4.17v26.34z"/><ellipse cx="35.58" cy="16.67" rx="8.13" ry="15.26" fill="none" stroke="#9aa8c1" stroke-linecap="round" stroke-linejoin="round"/><path d="M27.84 21.33h0S22.5 22 22.15 27a17.37 17.37 0 0 0 1.18 8.13s3.16-7.07 6.94-6.89h0a19.5 19.5 0 0 1-2.43-6.91zm15.49 0h0S48.67 22 49 27a17.37 17.37 0 0 1-1.18 8.13S44.68 28 40.9 28.22h0a19.5 19.5 0 0 0 2.43-6.89z" fill="#d4dce8" stroke="#9aa8c1" stroke-linecap="round" stroke-linejoin="round"/><path d="M28.37 11.65a16.93 16.93 0 0 0 7.21 1.41 16.92 16.92 0 0 0 7.21-1.41" fill="none" stroke="#9aa8c1" stroke-linecap="round" stroke-linejoin="round"/><circle cx="35.58" cy="20.31" r="2.45" fill="#fff"/><path fill="#fff" d="M59.28 28.08l10.93 5.97-25.73 7.38-10.82-9.18 25.62-4.17z"/><path fill="#2a4d8e" opacity=".11" d="M15.89 28.84l-8.82 4.9 23.54 7.22 3.05-8.71-17.77-3.41z"/><path fill="#fff" d="M11.89 28.08L2 33.21l22.21 6.81 9.45-7.77-21.77-4.17z"/><path fill="none" stroke="#9aa8c1" stroke-linecap="round" stroke-linejoin="round" d="M59.28 28.08l10.93 5.97-25.73 7.38-10.82-9.18 25.62-4.17zm-47.39 0L2 33.21l22.21 6.81 9.45-7.77-21.77-4.17z"/><circle cx="35.58" cy="20.31" r="2.45" fill="none" stroke="#9aa8c1" stroke-linecap="round" stroke-linejoin="round"/></svg>