<svg data-name="Layer 1" xmlns="http://www.w3.org/2000/svg" viewBox="0 0 80 60"><path fill="none" stroke="#fff" stroke-miterlimit="10" stroke-width=".5" d="M6.79 8.01V52.7M11.8 8.01V52.7m5.01-44.69V52.7m5.01-44.69V52.7m5.01-44.69V52.7m4.96-44.69V52.7m5.57-44.69V52.7m5.01-44.69V52.7m5.01-44.69V52.7M2 48.33h57.98M2 43.32h63.57M2 38.31h63.57M2 33.3h63.57M2 28.29h63.57M2 23.33h63.57M2 17.76h63.57M2 12.75h64.94M52.39 8.01V52.7M57.4 8.01V52.7m4.96-44.69v38.88"/><path fill="#d4dce8" d="M62.53 8.52l-.25-1h-6.36l-.97 1h7.58z"/><path fill="#d4dce8" d="M62.28 7.52h-6.36l-.97 1h7.58l-.25-1z"/><path d="M60 48.88c-.29 1.51.82 2.35 2.12 2.62a2.81 2.81 0 0 0 2.35-.82l.43-2.86" fill="none" stroke="#9aa8c1" stroke-linecap="round" stroke-linejoin="round"/><circle cx="31.79" cy="30.36" r="13.68" fill="none" stroke="#fff" stroke-miterlimit="10" stroke-width=".5"/><path d="M48.66 30.36a16.87 16.87 0 0 1-16.87 16.87M12.7 30.36h38.17" fill="none" stroke="#fff" stroke-miterlimit="10" stroke-width=".5"/><ellipse cx="31.79" cy="29.56" rx="7.79" ry="14.63" fill="none" stroke="#1c739b" stroke-miterlimit="10" opacity=".15"/><path d="M24.37 34h0s-5.11.68-5.45 5.42A16.65 16.65 0 0 0 20 47.23s3-6.78 6.65-6.61h0A18.69 18.69 0 0 1 24.37 34zm14.84 0h0s5.11.68 5.45 5.42a16.65 16.65 0 0 1-1.13 7.79s-3-6.78-6.65-6.61h0a18.69 18.69 0 0 0 2.33-6.6zm-14.34-9.26a16.22 16.22 0 0 0 6.91 1.35 16.21 16.21 0 0 0 6.91-1.35" fill="none" stroke="#1c739b" stroke-miterlimit="10" opacity=".15"/><circle cx="31.79" cy="33.05" r="2.35" fill="none" stroke="#1c739b" stroke-miterlimit="10" opacity=".15"/><ellipse cx="31.79" cy="29.56" rx="7.79" ry="14.63" fill="none" stroke="#fff" stroke-linecap="round" stroke-linejoin="round" stroke-width="1.4"/><path d="M24.37 34h0s-5.11.68-5.45 5.42A16.65 16.65 0 0 0 20 47.23s3-6.78 6.65-6.61h0A18.69 18.69 0 0 1 24.37 34zm14.84 0h0s5.11.68 5.45 5.42a16.65 16.65 0 0 1-1.13 7.79s-3-6.78-6.65-6.61h0a18.69 18.69 0 0 0 2.33-6.6zm-14.34-9.26a16.22 16.22 0 0 0 6.91 1.35 16.21 16.21 0 0 0 6.91-1.35" fill="none" stroke="#fff" stroke-linecap="round" stroke-linejoin="round" stroke-width="1.4"/><circle cx="31.79" cy="33.05" r="2.35" fill="none" stroke="#fff" stroke-linecap="round" stroke-linejoin="round" stroke-width="1.4"/><path d="M22.89 41.72l45.16-11.46L61 2.31zm37.28-16.15l-16.79 4.26 14.16-14.65z" fill="#2a4d8e" opacity=".11"/><path d="M22.89 41.72l45.16-11.46L61 2.31zm37.28-16.15l-16.79 4.26 14.16-14.65z" fill="none" stroke="#9aa8c1" stroke-linecap="round" stroke-linejoin="round"/><path fill="none" d="M43.38 29.83l16.79-4.26-2.64-10.39-14.15 14.65z"/><path d="M22.89 41.72L55 8.52H4A1.5 1.5 0 0 0 2.51 10v40.69A1.5 1.5 0 0 0 4 52.19h59.92A2.51 2.51 0 0 0 66.4 50l5.45-41.5h-9.32l5.52 21.74z" fill="none"/><path d="M72.8 7.69a.5.5 0 0 0-.38-.17H62.28l.25 1h9.32L66.4 50a2.51 2.51 0 0 1-2.48 2.17H4a1.5 1.5 0 0 1-1.5-1.5V10A1.5 1.5 0 0 1 4 8.52h51l1-1H4A2.5 2.5 0 0 0 1.51 10v40.69A2.5 2.5 0 0 0 4 53.19h59.92a3.51 3.51 0 0 0 3.47-3l5.53-42.1a.5.5 0 0 0-.12-.4z" fill="#9aa8c1"/><path d="M68.07 6.81l.46-.25a3.27 3.27 0 0 1 4 .75h0l-5.69 42.6h0a4 4 0 0 0-6.36-1.47l-.48.44z" fill="#fff" stroke="#9aa8c1" stroke-linecap="round" stroke-linejoin="round"/><path fill="#d4dce8" stroke="#9aa8c1" stroke-linecap="round" stroke-linejoin="round" d="M6.587 15.581l4.12-1.487 1.487 4.12-4.12 1.487z"/><path fill="#fff" stroke="#9aa8c1" stroke-linecap="round" stroke-linejoin="round" d="M13.56 53.45l-.15 4.24-1.83-4.1-2.07-29.26 1.97-.14 2.08 29.26zm15.96-5.77l2.83 3.17-1.22-4.32-17.09-23.84-1.6 1.16 17.08 23.83z"/><path fill="#d4dce8" stroke="#9aa8c1" stroke-linecap="round" stroke-linejoin="round" d="M10.153 48.452l3.63-.254.177 2.53-3.63.254z" stroke-width="1.002"/><path fill="none" stroke="#9aa8c1" stroke-linecap="round" stroke-linejoin="round" d="M6.72 30.31l13.29-4.8m-5.99 4.22l-.91-2.52M8.58 14.66l-.91-2.53"/><circle cx="10.97" cy="21.27" r="4.64" transform="rotate(-19.85 10.974 21.269)" fill="#d4dce8" stroke="#9aa8c1" stroke-linecap="round" stroke-linejoin="round"/></svg>