<svg data-name="Layer 1" xmlns="http://www.w3.org/2000/svg" viewBox="0 0 80 60"><path d="M25.3 44.48h-6.5c-9.08 0-.45-2.56-5.12-2.89S.88 41.92 2.13 45 10 49.09 10 49.09" fill="none" stroke="#9aa8c1" stroke-linecap="round" stroke-linejoin="round"/><path fill="#2a4d8e" opacity=".11" d="M53.1 20.33l12.42 6.43v-4.69l-.53-1.48-11.89-.26z"/><path d="M51.64 8.18l-16.93-.76a2.28 2.28 0 0 0-2.28 2.28v40.6a2.28 2.28 0 0 0 2.28 2.28l28.53-.76a2.28 2.28 0 0 0 2.28-2.28V22.07a2.28 2.28 0 0 0-.67-1.61L53.25 8.85a2.28 2.28 0 0 0-1.61-.67z" fill="none" stroke="#9aa8c1" stroke-linecap="round" stroke-linejoin="round"/><path d="M65 20.59L53.25 8.85l-.15.06v10.18a1.52 1.52 0 0 0 1.52 1.52H65v0z" fill="#d4dce8" stroke="#9aa8c1" stroke-linecap="round" stroke-linejoin="round"/><path fill="none" stroke="#9aa8c1" stroke-linecap="round" stroke-linejoin="round" d="M34.71 7.42h0zM32.43 50.3V9.7a2.27 2.27 0 0 1 1.25-2l-3.38.84a2.28 2.28 0 0 0-1.73 2.21v38.52a2.28 2.28 0 0 0 1.73 2.21l3.38.84a2.27 2.27 0 0 1-1.25-2.02zm2.28 2.28h0zM45.73 38.2l-4.1-4.09 4.1-4.1m8.02 0l4.09 4.1-4.09 4.09M51.7 27.11l-3.98 14.05"/><path fill="#fff" d="M22.41 46.8v-4.64h2.89l1.88-1h3.42v6.64h-3.42l-1.88-1h-2.89z"/><ellipse cx="11.38" cy="49.37" rx="4.83" ry="3.2" fill="#fff"/><circle cx="9.94" cy="49.37" r=".78" fill="#9aa8c1"/><circle cx="12.82" cy="49.37" r=".78" fill="#9aa8c1"/><path fill="none" stroke="#9aa8c1" stroke-linecap="round" stroke-linejoin="round" d="M22.41 46.8v-4.64h2.89l1.88-1h3.42v6.64h-3.42l-1.88-1h-2.89z"/><ellipse cx="11.38" cy="49.37" rx="4.83" ry="3.2" fill="none" stroke="#9aa8c1" stroke-linecap="round" stroke-linejoin="round"/></svg>