<svg data-name="Layer 1" xmlns="http://www.w3.org/2000/svg" viewBox="0 0 160 90"><ellipse cx="135.51" cy="66.05" rx="9.67" ry="2.91" fill="#2a4d8e" opacity=".08"/><path d="M130.78 31.73a8.21 8.21 0 0 1 2.49 1.79 4.68 4.68 0 0 1-1.27 1.81c-.83-1.86-1.5-3.5-1.22-3.6z" fill="#2a4d8e" opacity=".11"/><path d="M131.07 49.32s-1.4 8.92.62 8.81 3.92-2.85 3.92-2.85" fill="none" stroke="#9aa8c1" stroke-linecap="round" stroke-linejoin="round"/><path fill="#fff" stroke="#9aa8c1" stroke-linecap="round" stroke-linejoin="round" d="M131.69 50.93l-2.32 2.46-1.52-2.46-2.75 3.66-4.27-7.11-4.19 3.55-3.59-8.13 9.32-5.34 3.34 11.83 2.75-3.32 3.23 4.86z"/><path d="M139.47 39.23s-8-7.72-8.69-7.49 4 9.16 4 9.16" fill="none" stroke="#9aa8c1" stroke-linecap="round" stroke-linejoin="round"/><path d="M130.09 51.53c.91 4.13 4.08 5.62 7.29 5.6.78 0 4.61 1.3 5.69 1s-1.21-2.13-.4-3c1.9-2 2.74-5.49 2-9.08-1.13-5.13-5.16-8.6-9-7.76s-6.67 8.11-5.58 13.24z" fill="#fff"/><path d="M133.54 49c0 .53-1.39 1-3.12 1h-.55a13.35 13.35 0 0 1 0-1.88h.55c1.73-.04 3.12.39 3.12.88zm-3.11 1.67c1.72 0 3.12.43 3.12 1s-1.39 1-3.12 1a8.67 8.67 0 0 1-.31-1.06c-.06-.27-.1-.56-.14-.84h.48z" fill="#2a4d8e" opacity=".11"/><path d="M130.09 51.53c.91 4.13 4.08 5.62 7.29 5.6.78 0 4.61 1.3 5.69 1s-1.21-2.13-.4-3c1.9-2 2.74-5.49 2-9.08-1.13-5.13-5.16-8.6-9-7.76s-6.67 8.11-5.58 13.24z" fill="none" stroke="#9aa8c1" stroke-linecap="round" stroke-linejoin="round"/><path d="M135.51 38.94s-10.89-2.33-11.34-1.78 8.25 5.66 8.25 5.66" fill="#fff"/><ellipse cx="143.07" cy="44.62" rx=".7" ry="1.11" transform="rotate(-16.06 143.032 44.614)" fill="#9aa8c1"/><ellipse cx="139.65" cy="44.79" rx="1.08" ry="1.28" fill="#9aa8c1"/><path d="M127.43 39.75c-1.85-1.2-3.46-2.34-3.26-2.59s1.77 0 3.73.32a7.69 7.69 0 0 1-.47 2.27z" fill="#2a4d8e" opacity=".11"/><path d="M135.51 38.94s-10.89-2.33-11.34-1.78 8.25 5.66 8.25 5.66" fill="none" stroke="#9aa8c1" stroke-linecap="round" stroke-linejoin="round"/><ellipse cx="11.14" cy="18.39" rx="2.34" ry="1.69" transform="rotate(-10.94 11.147 18.403)" fill="none" stroke="#9aa8c1" stroke-linecap="round" stroke-linejoin="round"/><path fill="none" stroke="#9aa8c1" stroke-linecap="round" stroke-linejoin="round" d="M13.44 17.94v-7.93m2.81 5.52l-.67-.9a2.09 2.09 0 0 0-.72-.63l-1.42-.74v-2.92l2.22 2.19a2.09 2.09 0 0 1 .61 1.24l.2 1.67a.13.13 0 0 1-.22.09z"/><ellipse cx="26.36" cy="26.89" rx="2.34" ry="1.69" transform="rotate(-10.94 26.35 26.92)" fill="none" stroke="#9aa8c1" stroke-linecap="round" stroke-linejoin="round"/><path fill="none" stroke="#9aa8c1" stroke-linecap="round" stroke-linejoin="round" d="M28.66 26.44v-7.93"/><ellipse cx="33.23" cy="25.61" rx="2.34" ry="1.69" transform="rotate(-10.94 33.219 25.628)" fill="none" stroke="#9aa8c1" stroke-linecap="round" stroke-linejoin="round"/><path fill="none" stroke="#9aa8c1" stroke-linecap="round" stroke-linejoin="round" d="M35.52 25.17v-7.93m-6.86 1.27l6.86-1.27m-6.86 3.32l6.86-1.27"/><ellipse cx="81.41" cy="83.91" rx="33.34" ry="4.13" fill="#2a4d8e" opacity=".08"/><circle cx="81.41" cy="42.03" r="36.34" fill="#fff"/><circle cx="80.41" cy="45.03" r="30.46" fill="#fcf3c0"/><circle cx="61.44" cy="53.84" r="5.01" fill="#2a4d8e" opacity=".11"/><circle cx="97.94" cy="23.82" r="5.01" fill="#2a4d8e" opacity=".11"/><path d="M108 59.77a5 5 0 0 0-2.39 9.39 36.52 36.52 0 0 0 6.36-7.42 5 5 0 0 0-3.97-1.97z" fill="#2a4d8e" opacity=".11"/><path d="M85.41 70.24a36.34 36.34 0 0 1-34.36-48.18 36.34 36.34 0 1 0 64.72 31.81 36.3 36.3 0 0 1-30.36 16.37z" fill="#2a4d8e" opacity=".11"/><path d="M100.08 73.16c-.29 4.14-1.45 6.92-3.54 7.75-6.12 2.42-17.89-12.81-26.3-34S60 6.51 66.12 4.08c1.9-.75 4.35.2 7.07 2.51" fill="none" stroke="#9aa8c1" stroke-linecap="round" stroke-linejoin="round"/><path d="M93.2 7.64c8.4.28 14.21 2.17 14.73 5.31.83 5-12.07 11.31-28.8 14.07s-31 1-31.8-4.06c-.51-3.07 4.14-6.62 11.66-9.55m58.13 35.42c1.66.94 2.68 2.08 2.9 3.42 1 6-14.5 13.59-34.61 16.91S48.19 70.3 47.2 64.29c-.25-1.5.53-3.11 2.16-4.71m64.37-34.18c4.74 1.25 7.7 3.21 8.12 5.77 1.14 6.92-16.67 15.62-39.79 19.44S39.29 51.92 38.14 45c-.48-2.88 2.33-6.06 7.43-9.08" fill="none" stroke="#9aa8c1" stroke-linecap="round" stroke-linejoin="round"/><circle cx="62" cy="52.12" r="5.01" fill="#f9c7c0"/><circle cx="98.42" cy="21.61" r="5.01" fill="#e3d1ed"/><circle cx="62" cy="52.12" r="5.01" fill="none" stroke="#9aa8c1" stroke-linecap="round" stroke-linejoin="round"/><circle cx="98.42" cy="21.61" r="5.01" fill="#f9c7c0" stroke="#9aa8c1" stroke-linecap="round" stroke-linejoin="round"/><circle cx="81.41" cy="42.03" r="36.34" fill="none" stroke="#9aa8c1" stroke-linecap="round" stroke-linejoin="round"/><circle cx="109.03" cy="62.71" r="5.01" fill="#e3d1ed"/><circle cx="109.03" cy="62.71" r="5.01" fill="#f9c7c0" stroke="#9aa8c1" stroke-linecap="round" stroke-linejoin="round"/><ellipse cx="25.42" cy="82.24" rx="3.75" ry="12.56" transform="rotate(-84.88 25.42 82.24)" fill="#2a4d8e" opacity=".08"/><path d="M36 81.78c-.31-.61-2.65-1.11-5.73-1.26V67.48h-3.92v13.05c-3.06.15-5.37.65-5.68 1.25v1.44c0 .8 3.45 1.44 7.7 1.44S36 84 36 83.23v-1.45z" fill="#f0f3f6"/><path d="M26.35 67.48v13.05c0 .47 1.12.56 1.12.56V67.48h-1.12zm1.98 15.63c-4 0-7.35-.58-7.67-1.33v1.44c0 .8 3.45 1.44 7.7 1.44S36 84 36 83.23v-1.45c-.32.75-3.63 1.33-7.67 1.33z" fill="#2a4d8e" opacity=".11"/><path d="M36 81.78c-.31-.61-2.65-1.11-5.73-1.26V67.48h-3.92v13.05c-3.06.15-5.37.65-5.68 1.25h0v1.44c0 .8 3.45 1.44 7.7 1.44S36 84 36 83.23v-1.45h0z" fill="none" stroke="#9aa8c1" stroke-linecap="round" stroke-linejoin="round"/><path d="M29.51 66l1.28-4.47-4.21-.7-1.09 6.56A2.07 2.07 0 0 0 26.83 70l3.36 1.27 1.85-3z" fill="#f0f3f6"/><path d="M29.51 66l1.28-4.47-4.21-.7-1.09 6.56A2.07 2.07 0 0 0 26.83 70l3.36 1.27 1.85-3z" fill="#2a4d8e" opacity=".11"/><path d="M30.18 71.24a2.07 2.07 0 0 1-1.35-2.54l1.09-6.56 4.21.7-1.92 6.76a2 2 0 0 1-2.03 1.64z" fill="#f0f3f6"/><path d="M30.59 62.24l.19-.68-4.21-.7-1.09 6.56A2.07 2.07 0 0 0 26.83 70l2.92 1.1a1.36 1.36 0 0 0 .44.17h0a2 2 0 0 0 2-1.64l1.93-6.77z" fill="none" stroke="#9aa8c1" stroke-linecap="round" stroke-linejoin="round"/><ellipse cx="30.5" cy="69.16" rx="1.4" ry="1.07" transform="rotate(-80.53 30.506 69.159)" fill="#d4dce8"/><path d="M29.43 69.41a1.58 1.58 0 0 0 .1.45l2.05-.77a1.67 1.67 0 0 0-.06-.51z" fill="#2a4d8e" opacity=".11"/><path d="M34.57 39.8c-4.37-1.15-8.39-.28-9 1.95l-4.33 16.47c-.59 2.23 2.48 5 6.85 6.12s8.39.28 9-1.95l4.34-16.47C42 43.7 38.94 41 34.57 39.8z" fill="#f0f3f6"/><path d="M41.21 46.72L39.63 46a.76.76 0 1 0-.63 1.37l1.82.84zm-4.68-.43h-.1a30.92 30.92 0 0 0-3.66-1.33c-.87-.23-2-.46-3.26-.69a.76.76 0 0 1 .27-1.49c1.34.24 2.47.48 3.38.72A32.29 32.29 0 0 1 37 44.85a.76.76 0 0 1-.47 1.44zm3.89 3.43L38.83 49a.76.76 0 0 0-.62 1.38l1.79.83zm-4.68-.44h-.1A30.91 30.91 0 0 0 32 47.93c-.87-.23-2-.46-3.26-.69a.76.76 0 0 1 .26-1.5c1.34.24 2.47.48 3.38.72a32.29 32.29 0 0 1 3.86 1.39.76.76 0 0 1-.5 1.43zm-.8 3.06h-.09A36 36 0 0 0 31.16 51c-.87-.23-2-.48-3.27-.74a.76.76 0 0 1 .3-1.48c1.32.27 2.45.53 3.35.76a37.46 37.46 0 0 1 3.86 1.34.76.76 0 0 1-.46 1.46zm-.81 3.05h-.07c-1.59-.59-2.84-1-3.71-1.24s-2-.5-3.27-.8a.76.76 0 0 1 .34-1.48c1.31.3 2.42.57 3.32.81s2.26.66 3.85 1.32a.76.76 0 0 1-.46 1.39zm-.79 3h-.07c-1.59-.59-2.84-1-3.71-1.24s-2-.5-3.27-.8a.76.76 0 1 1 .34-1.48c1.31.3 2.42.57 3.32.81s2.21.66 3.85 1.32a.76.76 0 0 1-.46 1.39zm-.8 3.06h-.06c-1.6-.56-2.86-1-3.74-1.2l-3.28-.85a.76.76 0 0 1 .38-1.47l3.29.85C30 59 31.34 59.43 33 60a.76.76 0 0 1-.46 1.45zm7.1-8.78L38 52a.76.76 0 0 0-.59 1.39l1.82.79zm-.78 2.96L37.22 55a.76.76 0 0 0-.56 1.41l1.81.73zm-.79 3L36.43 58a.76.76 0 1 0-.56 1.41l1.81.73zM35.62 61a.76.76 0 0 0-.53 1.42l1.71.58a2.21 2.21 0 0 0 .27-.62l.21-.81zm-8.49-18.68l-1.64-.23-.39 1.48 1.81.25a.76.76 0 0 0 .22-1.5zm-.79 3l-1.64-.23-.39 1.48 1.81.25a.76.76 0 0 0 .22-1.5zm-.78 2.98l-1.62-.3-.39 1.47 1.74.3a.76.76 0 1 0 .27-1.47zm-.74 2.99l-1.66-.35-.38 1.46 1.72.37a.76.76 0 0 0 .32-1.48zm-.82 3l-1.66-.35L22 55.4l1.72.37a.76.76 0 0 0 .28-1.48zm-.73 2.98l-1.66-.42-.36 1.37v.1l1.68.42a.76.76 0 0 0 .34-1.47z" fill="#d4dce8"/><ellipse cx="26.34" cy="50.76" rx="2.5" ry="1.6" transform="rotate(-75.23 26.333 50.757)" fill="#f0f3f6"/><ellipse cx="26.34" cy="50.76" rx="1.36" ry=".87" transform="rotate(-75.23 26.333 50.757)" fill="#e3d1ed"/><path d="M28.75 60.2l4.34-16.47a4.34 4.34 0 0 1 4.28-2.89 15.3 15.3 0 0 0-2.81-1c-4.37-1.15-8.39-.28-9 1.95l-4.32 16.43c-.59 2.23 2.48 5 6.85 6.12a15.3 15.3 0 0 0 3 .48 4.34 4.34 0 0 1-2.34-4.62z" fill="#2a4d8e" opacity=".11"/><path d="M34.57 39.8c-4.37-1.15-8.39-.28-9 1.95l-4.33 16.47c-.59 2.23 2.48 5 6.85 6.12s8.39.28 9-1.95l4.34-16.47C42 43.7 38.94 41 34.57 39.8z" fill="none" stroke="#9aa8c1" stroke-linecap="round" stroke-linejoin="round"/></svg>