<svg data-name="Layer 3" xmlns="http://www.w3.org/2000/svg" viewBox="0 0 160 90"><path fill="none" stroke="#2a4d8e" stroke-linecap="round" stroke-linejoin="round" opacity=".11" d="M27.65 46.17v-6.04M17.3 55.72h-6.04m9.2-6.79l-4.27-4.27"/><rect x="91.79" y="16.72" width="52.81" height="35.38" rx="3" ry="3" transform="rotate(-21.62 118.197 34.402)" fill="#dbdbdb"/><path d="M148.15 38.34L137.32 11a3 3 0 0 0-3.89-1.68l-5.32 2.11s-8.87 6.34-11.69 12.8c-7.44 17 31.19-6.13 18.87 19.38-10 20.65-27.35-8.59-41.72.33l5.49 13.86a3 3 0 0 0 3.94 1.68l43.51-17.25a3 3 0 0 0 1.64-3.89z" fill="#fff"/><rect x="95.41" y="35.17" width="9.26" height="6.2" rx="1.61" ry="1.61" transform="rotate(-21.62 100.062 38.267)" fill="#fff"/><rect x="95.41" y="35.17" width="9.26" height="6.2" rx="1.61" ry="1.61" transform="rotate(-21.62 100.062 38.267)" fill="none" stroke="#2a4d8e" stroke-linecap="round" stroke-linejoin="round" opacity=".11"/><path fill="none" stroke="#2a4d8e" stroke-linecap="round" stroke-linejoin="round" opacity=".11" d="M99.85 48.28l.74 1.86m1.12-2.6l.74 1.86m1.12-2.6l.73 1.86m1.13-2.59l.73 1.86m2.99-3.34l.73 1.86m1.13-2.59l.73 1.86m1.12-2.6l.74 1.86m1.12-2.6l.74 1.86m2.98-3.33l.74 1.86m1.12-2.6l.74 1.86m1.12-2.6l.74 1.86m1.12-2.59l.74 1.86m2.98-3.34l.74 1.86m1.12-2.59l.73 1.86m1.13-2.6l.73 1.86m1.13-2.6l.73 1.86m-32.12 16.67l.52 1.3m1.06-1.93l.52 1.3m1.07-1.92l.51 1.29m1.07-1.92l.51 1.3m1.07-1.93l.51 1.3m1.07-1.92l.51 1.3m2.65-2.56l.51 1.3m1.07-1.92l.51 1.3m1.07-1.93l.51 1.3m1.07-1.93l.51 1.3m1.07-1.92l.51 1.3m1.07-1.93l.51 1.3m1.07-1.93l.51 1.3m1.07-1.92l.51 1.3m1.07-1.93l.51 1.3m13.71-6.94l.52 1.3m1.06-1.92l.52 1.3m1.06-1.93l.52 1.3"/><path d="M133.13 12.43l-13 5.16a2 2 0 0 0-1.12 2.6l3.68 9.3a2 2 0 0 0 2.6 1.12l13-5.16a2 2 0 0 0 1.12-2.6l-3.68-9.3a2 2 0 0 0-2.6-1.12z" fill="#c2e6ef"/><path d="M127.23 23.91l-.82.32a.22.22 0 0 1-.27-.08l-1.34-1.87a.22.22 0 0 0-.17-.09l-.93-.07 3-1.2a.22.22 0 0 1 .31.18l.35 2.61a.22.22 0 0 1-.13.2zm1.63-.64l-.71.28a.22.22 0 0 1-.31-.18l-.35-2.61a.22.22 0 0 1 .14-.24l.71-.28a.22.22 0 0 1 .31.18L129 23a.22.22 0 0 1-.14.27zm1.62-.65l-.71.28a.22.22 0 0 1-.31-.18l-.35-2.61a.22.22 0 0 1 .14-.24l.75-.27a.22.22 0 0 1 .31.18l.35 2.61a.22.22 0 0 1-.18.23zm2.91-1.15l-2 .79a.22.22 0 0 1-.31-.18l-.35-2.61a.22.22 0 0 1 .14-.24l.82-.32a.22.22 0 0 1 .31.09l1.53 2.14a.22.22 0 0 1-.14.33z" fill="#fff"/><rect x="91.79" y="16.72" width="52.81" height="35.38" rx="3" ry="3" transform="rotate(-21.62 118.197 34.402)" fill="none" stroke="#9aa8c1" stroke-linecap="round" stroke-linejoin="round"/><path d="M141.17 30.12a3 3 0 0 0-3.41-2.52l-46.29 6.92a3 3 0 0 0-1.4.61l9 22.67a3 3 0 0 0 3.93 1.68l40.23-15.95z" fill="#2a4d8e" opacity=".11"/><path d="M114.42 16.88l-24.51 9.71a3 3 0 0 0-1.68 3.89L99.06 57.8a3 3 0 0 0 3.94 1.68l11.47-4.55V16.88z" fill="#2a4d8e" opacity=".11"/><rect x="93.61" y="34.87" width="52.81" height="35.38" rx="3" ry="3" transform="rotate(-8.5 120.105 52.563)" fill="#e3d1ed"/><path d="M113 35.72l-17.63 2.63C102.92 44.67 122 61 131.2 68.77L143.26 67z" fill="#c8e8de"/><path d="M117 35.13l-17.62 2.63c7.55 6.32 26.67 22.6 35.83 30.42l12.05-1.8z" fill="#fcf3c0"/><rect x="96.84" y="49.09" width="9.26" height="6.2" rx="1.61" ry="1.61" transform="rotate(-8.5 101.527 52.197)" fill="#fff"/><rect x="96.84" y="49.09" width="9.26" height="6.2" rx="1.61" ry="1.61" transform="rotate(-8.5 101.527 52.197)" fill="none" stroke="#2a4d8e" stroke-linecap="round" stroke-linejoin="round" opacity=".11"/><path fill="none" stroke="#2a4d8e" stroke-linecap="round" stroke-linejoin="round" opacity=".11" d="M99 61.9l.3 1.98m1.68-2.28l.3 1.98m1.68-2.27l.3 1.98m1.68-2.28l.29 1.98m3.66-2.57l.3 1.98m1.68-2.28l.3 1.98m1.68-2.27l.3 1.98m1.68-2.28l.29 1.98m3.66-2.57l.3 1.98m1.68-2.27l.3 1.97m1.68-2.27l.3 1.98m1.68-2.28l.29 1.98m3.66-2.57l.3 1.98m1.68-2.27l.3 1.97m1.68-2.27l.3 1.98m1.68-2.27l.29 1.97m-35.06 8.94l.21 1.39m1.47-1.64l.21 1.39m1.47-1.64l.21 1.38m1.47-1.63l.21 1.38m1.48-1.63l.2 1.38m1.48-1.63l.2 1.38m3.16-1.89l.21 1.39m1.47-1.64l.21 1.39m1.47-1.64l.21 1.38m1.47-1.63l.21 1.38m1.47-1.63l.21 1.38m1.48-1.63l.2 1.38m1.48-1.63l.2 1.38m1.48-1.63l.21 1.38m1.47-1.64l.21 1.39m14.92-3.65l.21 1.38m1.47-1.63l.21 1.38m1.47-1.63l.21 1.38"/><rect x="93.61" y="34.87" width="52.81" height="35.38" rx="3" ry="3" transform="rotate(-8.5 120.105 52.563)" fill="none" stroke="#9aa8c1" stroke-linecap="round" stroke-linejoin="round"/><path d="M139.55 34.54l-13.85 2.07a2 2 0 0 0-1.7 2.27l1.48 9.89a2 2 0 0 0 2.27 1.68l13.85-2.07a2 2 0 0 0 1.68-2.27l-1.48-9.89a2 2 0 0 0-2.27-1.68z" fill="#fff"/><path d="M132.54 42.66a3 3 0 0 0 1.46 2.15 3 3 0 0 0-.69-4.62 3 3 0 0 0-.77 2.47z" fill="#ff5f00"/><path d="M132.54 42.66a3 3 0 0 0 1.46 2.15 3 3 0 0 0-.69-4.62 3 3 0 0 0-.77 2.47z" fill="#f2e4c2"/><path d="M135.06 39.25a3 3 0 0 0-1.74.93 3 3 0 0 1 .69 4.62 3 3 0 1 0 1.05-5.55z" fill="#fcf3c0"/><path d="M132.54 42.66a3 3 0 0 1 .78-2.48 3 3 0 1 0 .69 4.62 3 3 0 0 1-1.47-2.14z" fill="#f9c7c0"/><path d="M111.42 36l-17.17 2.52a3 3 0 0 0-2.52 3.41L96.07 71a3 3 0 0 0 3.41 2.52l11.94-1.79V36z" fill="#2a4d8e" opacity=".11"/><ellipse cx="80" cy="85.14" rx="30.39" ry="3.47" fill="#2a4d8e" opacity=".08"/><ellipse cx="30.02" cy="81.01" rx="5.8" ry="16.72" transform="rotate(-84.05 30.017 81.002)" fill="#2a4d8e" opacity=".08"/><path d="M25.28 78.4v4.43c0 1.68 4.3 3 9.61 3s9.61-1.36 9.61-3V78.4H25.28z" fill="#fcf3c0"/><path d="M28.65 78.4h-3.37v4.43c0 .93 1.31 1.76 3.38 2.31V78.4z" fill="#2a4d8e" opacity=".11"/><path d="M25.28 78.4v4.43c0 1.68 4.3 3 9.61 3s9.61-1.36 9.61-3V78.4H25.28z" fill="none" stroke="#9aa8c1" stroke-linecap="round" stroke-linejoin="round"/><ellipse cx="34.88" cy="78.4" rx="9.61" ry="3.04" fill="#fcf3c0"/><ellipse cx="34.88" cy="78.4" rx="9.61" ry="3.04" fill="none" stroke="#9aa8c1" stroke-linecap="round" stroke-linejoin="round"/><path fill="none" stroke="#fff" stroke-linecap="round" stroke-miterlimit="10" d="M41.36 82.13v1.41m1.62-2.1v1.41"/><path d="M26.64 72.07v4.43c0 1.68 4.3 3 9.61 3s9.61-1.36 9.61-3v-4.43H26.64z" fill="#fcf3c0"/><path d="M30 72.07h-3.36v4.43c0 .93 1.31 1.76 3.38 2.31v-6.74z" fill="#2a4d8e" opacity=".11"/><path d="M26.64 72.07v4.43c0 1.68 4.3 3 9.61 3s9.61-1.36 9.61-3v-4.43H26.64z" fill="none" stroke="#9aa8c1" stroke-linecap="round" stroke-linejoin="round"/><ellipse cx="36.24" cy="72.07" rx="9.61" ry="3.04" fill="#fcf3c0"/><ellipse cx="36.24" cy="72.07" rx="9.61" ry="3.04" fill="none" stroke="#9aa8c1" stroke-linecap="round" stroke-linejoin="round"/><path fill="none" stroke="#fff" stroke-linecap="round" stroke-miterlimit="10" d="M42.72 75.81v1.41m1.62-2.11v1.41"/><path d="M25 65.48v4.43c0 1.68 4.3 3 9.61 3s9.61-1.36 9.61-3v-4.43H25z" fill="#fcf3c0"/><path d="M28.33 65.48H25v4.43c0 .93 1.31 1.76 3.38 2.31v-6.74z" fill="#2a4d8e" opacity=".11"/><path d="M25 65.48v4.43c0 1.68 4.3 3 9.61 3s9.61-1.36 9.61-3v-4.43H25z" fill="none" stroke="#9aa8c1" stroke-linecap="round" stroke-linejoin="round"/><ellipse cx="34.56" cy="65.48" rx="9.61" ry="3.04" fill="#fcf3c0"/><ellipse cx="34.56" cy="65.48" rx="9.61" ry="3.04" fill="none" stroke="#9aa8c1" stroke-linecap="round" stroke-linejoin="round"/><path fill="none" stroke="#fff" stroke-linecap="round" stroke-miterlimit="10" d="M41.03 69.21v1.41m1.62-2.1v1.41"/><path d="M25.28 59.33v4.43c0 1.68 4.3 3 9.61 3s9.61-1.36 9.61-3v-4.43H25.28z" fill="#fcf3c0"/><path d="M28.65 59.33h-3.37v4.43c0 .93 1.31 1.76 3.38 2.31v-6.74z" fill="#2a4d8e" opacity=".11"/><path d="M25.28 59.33v4.43c0 1.68 4.3 3 9.61 3s9.61-1.36 9.61-3v-4.43H25.28z" fill="none" stroke="#9aa8c1" stroke-linecap="round" stroke-linejoin="round"/><ellipse cx="34.88" cy="59.33" rx="9.61" ry="3.04" fill="#fcf3c0"/><ellipse cx="34.88" cy="59.33" rx="9.61" ry="3.04" fill="none" stroke="#9aa8c1" stroke-linecap="round" stroke-linejoin="round"/><path fill="none" stroke="#fff" stroke-linecap="round" stroke-miterlimit="10" d="M41.36 63.07v1.41m1.62-2.11v1.41"/><path d="M23.44 55.61V60c0 1.68 4.3 3 9.61 3s9.61-1.36 9.61-3v-4.39H23.44z" fill="#fcf3c0"/><path d="M26.82 55.61h-3.38V60c0 .93 1.31 1.76 3.38 2.31v-6.7z" fill="#2a4d8e" opacity=".11"/><path d="M23.44 55.61V60c0 1.68 4.3 3 9.61 3s9.61-1.36 9.61-3v-4.39H23.44z" fill="none" stroke="#9aa8c1" stroke-linecap="round" stroke-linejoin="round"/><ellipse cx="33.05" cy="55.61" rx="9.61" ry="3.04" fill="#fcf3c0"/><ellipse cx="33.05" cy="55.61" rx="9.61" ry="3.04" fill="none" stroke="#9aa8c1" stroke-linecap="round" stroke-linejoin="round"/><path fill="none" stroke="#fff" stroke-linecap="round" stroke-miterlimit="10" d="M39.52 59.34v1.41m1.63-2.1v1.41"/><rect x="53.61" y="9.63" width="52.81" height="75.67" rx="3" ry="3" fill="#fff"/><path d="M103.42 9.63H56.61a3 3 0 0 0-3 3V24.9h52.81V12.63a3 3 0 0 0-3-3z" fill="#c8e8de"/><rect x="53.61" y="9.63" width="52.81" height="75.67" rx="3" ry="3" fill="none" stroke="#9aa8c1" stroke-linecap="round" stroke-linejoin="round"/><path fill="none" stroke="#9aa8c1" stroke-linecap="round" stroke-linejoin="round" d="M63.01 39.53h33.98M53.58 24.9h52.84M63.01 48.64h33.98m-33.98 9.1h33.98"/><rect x="62.58" y="66.5" width="34.42" height="7.97" rx="2" ry="2" fill="#c8e8de"/><rect x="62.58" y="66.5" width="34.42" height="7.97" rx="2" ry="2" fill="none" stroke="#9aa8c1" stroke-linecap="round" stroke-linejoin="round"/><path d="M91.29 71.55l-2.07-1.35a.44.44 0 0 0-.67.43l.35 2.45a.44.44 0 0 0 .81.16l.22-.37.56.88a.44.44 0 1 0 .74-.47l-.56-.88h.42a.44.44 0 0 0 .2-.85z" fill="#2a4d8e" opacity=".08"/><path d="M91.31 71l-1.79-1.17a.38.38 0 0 0-.58.37l.31 2.12a.38.38 0 0 0 .7.14l.19-.32.48.76a.38.38 0 0 0 .64-.41l-.48-.76h.37a.38.38 0 0 0 .16-.73z" fill="#9aa8c1"/></svg>