<svg data-name="Layer 1" xmlns="http://www.w3.org/2000/svg" viewBox="0 0 160 90"><path d="M111.48 36.27a6 6 0 1 0 0-12H44.62v12h66.86z" fill="#fff"/><path d="M111.48 26.78a6 6 0 0 1 5.88 4.74q.06-.3.1-.61a5.9 5.9 0 0 0 0-.65 6 6 0 0 0-6-6H44.62v2.55h66.86z" fill="#2a4d8e" opacity=".11"/><path d="M136.12 42.82a2.18 2.18 0 0 1-2.19 2.18H30.4a6 6 0 0 0-6 6 6 6 0 0 0 6 6h103.53a2.18 2.18 0 0 1 2.18 2.18 2.18 2.18 0 0 1-2.18 2.18H30.4A10.38 10.38 0 0 1 20 51a10.38 10.38 0 0 1 10.4-10.37h103.53a2.18 2.18 0 0 1 2.19 2.19z" fill="#fcf3c0"/><path fill="#2a4d8e" opacity=".11" d="M42.2 50.44h2.25V61.4H42.2z"/><ellipse cx="78.9" cy="83.5" rx="62.16" ry="4.32" fill="#2a4d8e" opacity=".08"/><path fill="#dae5be" d="M30.23 61.4h95.67v22.1H30.23z"/><path fill="#fff" d="M92.01 61.4H107v22.1H92.01z"/><path d="M30.23 67.55h10.93V73a.74.74 0 0 0 1.15.61l5.77-3.85 5.77 3.85A.74.74 0 0 0 55 73v-5.45h70.9V61.4H30.23v6.15z" fill="#2a4d8e" opacity=".11"/><path fill="none" stroke="#9aa8c1" stroke-linecap="round" stroke-linejoin="round" d="M30.23 61.4h95.67v22.1H30.23z"/><path fill="none" stroke="#9aa8c1" stroke-linecap="round" stroke-linejoin="round" d="M92.01 61.4H107v22.1H92.01zm44.11-18.58h0a2.18 2.18 0 0 1-2.19 2.18H30.4a6 6 0 0 0-6 6h0a6 6 0 0 0 6 6h103.53a2.18 2.18 0 0 1 2.18 2.18h0a2.18 2.18 0 0 1-2.18 2.18H30.4A10.38 10.38 0 0 1 20 51h0a10.38 10.38 0 0 1 10.4-10.37h103.53a2.18 2.18 0 0 1 2.19 2.19zM129.83 45v12.03"/><path d="M55.87 67.12l-5.43-3.62L45 67.12a.7.7 0 0 1-1.08-.58v-16.1h13v16.1a.7.7 0 0 1-1.05.58z" fill="#e3d1ed"/><path d="M55.87 67.12l-5.43-3.62L45 67.12a.7.7 0 0 1-1.08-.58v-16.1h13v16.1a.7.7 0 0 1-1.05.58zM36.58 50.44h31.9m-18.04 0v7.73m10.85-45.91s-9.6-.25-9.85 1.83S53 19.87 53 19.87" fill="none" stroke="#9aa8c1" stroke-linecap="round" stroke-linejoin="round"/><path d="M91.71 12.26s-4.54-.25-4.66 1.83a27.49 27.49 0 0 0 .75 5.78" fill="none" stroke="#2a4d8e" stroke-linecap="round" stroke-linejoin="round" opacity=".11"/><path d="M75 13a1.6 1.6 0 0 1 3 0" fill="none" stroke="#9aa8c1" stroke-linecap="round" stroke-linejoin="round"/><path d="M75 13a6.87 6.87 0 1 1-13.73 0c0-3.79 3.07-5.7 6.87-5.7S75 9.21 75 13z" fill="#2a4d8e" opacity=".11"/><path fill="none" stroke="#fff" stroke-linecap="round" stroke-linejoin="round" stroke-width="2" d="M70.54 8.97l-3.63 4 3.66-.51-5.07 5.82"/><path d="M91.79 13a6.87 6.87 0 1 1-13.73 0c0-3.79 3.07-5.7 6.87-5.7s6.86 1.91 6.86 5.7z" fill="#2a4d8e" opacity=".11"/><path d="M75 13a6.87 6.87 0 1 1-13.73 0c0-3.79 3.07-5.7 6.87-5.7S75 9.21 75 13z" fill="none" stroke="#9aa8c1" stroke-linecap="round" stroke-linejoin="round"/><path fill="none" stroke="#fff" stroke-linecap="round" stroke-linejoin="round" stroke-width="2" d="M87.72 8.97l-3.62 4 3.66-.51-5.08 5.82"/><path d="M91.79 13a6.87 6.87 0 1 1-13.73 0c0-3.79 3.07-5.7 6.87-5.7s6.86 1.91 6.86 5.7z" fill="none" stroke="#9aa8c1" stroke-linecap="round" stroke-linejoin="round"/><path d="M38.33 22.05a2.18 2.18 0 0 0 2.18 2.18h71a6 6 0 0 1 6 6 6 6 0 0 1-6 6h-71a2.18 2.18 0 0 0-2.18 2.18 2.18 2.18 0 0 0 2.18 2.18h71a10.38 10.38 0 0 0 10.38-10.38 10.38 10.38 0 0 0-10.38-10.38h-71a2.18 2.18 0 0 0-2.18 2.22z" fill="#f9c7c0"/><path d="M38.33 22.05h0a2.18 2.18 0 0 0 2.18 2.18h71a6 6 0 0 1 6 6h0a6 6 0 0 1-6 6h-71a2.18 2.18 0 0 0-2.18 2.18h0a2.18 2.18 0 0 0 2.18 2.18h71a10.38 10.38 0 0 0 10.38-10.38h0a10.38 10.38 0 0 0-10.38-10.38h-71a2.18 2.18 0 0 0-2.18 2.22zm6.29 2.19v12.03" fill="none" stroke="#9aa8c1" stroke-linecap="round" stroke-linejoin="round"/></svg>