<svg data-name="Layer 1" xmlns="http://www.w3.org/2000/svg" viewBox="0 0 160 90"><ellipse cx="80" cy="80.3" rx="65.26" ry="4.53" fill="#2a4d8e" opacity=".08"/><rect x="20.98" y="4.63" width="114.86" height="75.67" rx="3" ry="3" fill="#fff"/><path fill="none" stroke="#f0f3f6" stroke-linecap="round" stroke-linejoin="round" stroke-width="2" d="M28.65 46.87h107.19"/><path d="M21 13.43V77.3a3 3 0 0 0 3 3h5V13.43h-8z" fill="#d4dce8"/><path d="M132.84 4.63H24a3 3 0 0 0-3 3v5.8h114.84v-5.8a3 3 0 0 0-3-3z" fill="#dbdbdb"/><rect x="20.98" y="4.63" width="114.86" height="75.67" rx="3" ry="3" fill="none" stroke="#9aa8c1" stroke-linecap="round" stroke-linejoin="round"/><path fill="none" stroke="#9aa8c1" stroke-linecap="round" stroke-linejoin="round" d="M20.98 13.43h114.86"/><circle cx="26.01" cy="9.03" r="1.14" fill="#9aa8c1"/><circle cx="30.11" cy="9.03" r="1.14" fill="#9aa8c1"/><circle cx="34.2" cy="9.03" r="1.14" fill="#9aa8c1"/><path fill="none" stroke="#c8e8de" stroke-linecap="round" stroke-linejoin="round" stroke-width="2" d="M37.93 65.66l6.09 4 6.09-5.54 5.36 6.77 8.16 2.16 4.76-7.7 6.1-5.54 6.09 3.85 6.09-6.31 6.1 5.51 6.09.65 6.09-6.93 6.1 7.16 6.09-9.16 6.09 2 6.1-4.46"/><path fill="none" stroke="#dbdbdb" stroke-linecap="round" stroke-linejoin="round" d="M37.93 65.66h2"/><path fill="none" stroke="#dbdbdb" stroke-linecap="round" stroke-linejoin="round" stroke-dasharray="4.161891460418701,4.161891460418701" d="M44.09 65.66h81.16"/><path fill="none" stroke="#dbdbdb" stroke-linecap="round" stroke-linejoin="round" d="M127.33 65.66h2"/><circle cx="56.24" cy="30.11" r="11.56" fill="none" stroke="#f0f3f6" stroke-linecap="round" stroke-linejoin="round" stroke-width="2"/><path d="M56.24 18.55A11.56 11.56 0 1 1 45.74 35" fill="none" stroke="#d4dce8" stroke-linecap="round" stroke-linejoin="round" stroke-width="2"/><path d="M56.24 18.55a11.57 11.57 0 0 1 6.91 20.84" fill="none" stroke="#f9c7c0" stroke-linecap="round" stroke-linejoin="round" stroke-width="2"/><path d="M135.84 21.29h-46.9a4 4 0 0 0-4 4v34.34a4 4 0 0 0 4 4h46.9V21.29z" fill="#2a4d8e" opacity=".11"/><rect x="89.88" y="16.29" width="64.27" height="42.34" rx="3" ry="3" fill="#fff"/><rect x="89.88" y="16.29" width="64.27" height="42.34" rx="3" ry="3" fill="none" stroke="#9aa8c1" stroke-linecap="round" stroke-linejoin="round"/><path d="M29.75 86.79H11.86a1.33 1.33 0 0 1-1.32-1.2L7.11 51.77H34.5L31.07 85.6a1.33 1.33 0 0 1-1.32 1.19z" fill="#f0f3f6"/><path fill="#fcf3c0" d="M31.99 76.56L33.7 59.7H7.91l1.71 16.86h22.37z"/><circle cx="20.8" cy="68.13" r="6.11" fill="#fff"/><path d="M36.25 51.77H5.43a1.33 1.33 0 0 1-1.32-1.48l.58-5.05A1.33 1.33 0 0 1 6 44.06h29.67A1.33 1.33 0 0 1 37 45.23l.58 5.05a1.33 1.33 0 0 1-1.33 1.49z" fill="#fff"/><path d="M8.91 44.06h24.15v-1.77A1.33 1.33 0 0 0 31.82 41l-21.48-1.62a1.33 1.33 0 0 0-1.43 1.33v3.35z" fill="#fff"/><path d="M16.47 70.34a6.1 6.1 0 0 1 9.86-4.82 6.1 6.1 0 1 0-9.27 7.42 6.07 6.07 0 0 1-.59-2.6zM6 44.06a1.33 1.33 0 0 0-1.32 1.18l-.57 5.05a1.33 1.33 0 0 0 1.32 1.48h4.68a18.86 18.86 0 0 1 1.25-7.71H6z" fill="#2a4d8e" opacity=".11"/><path d="M7.11 51.77l3.43 33.83a1.33 1.33 0 0 0 1.32 1.2H15c-.53-6.91-1.49-18.86-1.84-24.8a19.2 19.2 0 0 1 2.08-10.25H7.11z" fill="#2a4d8e" opacity=".11"/><path d="M9.62 76.56L10 80.3c2.53-2.82 21.78-1.71 21.78-1.71l.21-2H9.62zM7.1 51.77l.46 4.58c3.1-3.45 26.7-2.1 26.7-2.1l.25-2.49H7.1z" fill="#2a4d8e" opacity=".11"/><path d="M36.25 51.77H5.43a1.33 1.33 0 0 1-1.32-1.48l.58-5.05A1.33 1.33 0 0 1 6 44.06h29.67A1.33 1.33 0 0 1 37 45.23l.58 5.05a1.33 1.33 0 0 1-1.33 1.49z" fill="none" stroke="#9aa8c1" stroke-linecap="round" stroke-linejoin="round"/><circle cx="20.8" cy="68.13" r="6.11" fill="none" stroke="#9aa8c1" stroke-linecap="round" stroke-linejoin="round"/><path fill="none" stroke="#9aa8c1" stroke-linecap="round" stroke-linejoin="round" d="M31.99 76.56L33.7 59.7H7.91l1.71 16.86h22.37z"/><path d="M29.75 86.79H11.86a1.33 1.33 0 0 1-1.32-1.2L7.11 51.77H34.5L31.07 85.6a1.33 1.33 0 0 1-1.32 1.19z" fill="none" stroke="#9aa8c1" stroke-linecap="round" stroke-linejoin="round"/><path d="M15.47 39.76l-5.13-.38a1.31 1.31 0 0 0-.72.16l-.71 1.53v3h4.87s.57-3.33 1.69-4.3z" fill="#2a4d8e" opacity=".11"/><path d="M8.91 44.06h24.15v-1.77A1.33 1.33 0 0 0 31.82 41l-21.48-1.62a1.33 1.33 0 0 0-1.43 1.33v3.35z" fill="none" stroke="#9aa8c1" stroke-linecap="round" stroke-linejoin="round"/><path d="M11.15 37.65a3.37 3.37 0 0 0 0-4l-.15-.19a3.37 3.37 0 0 1 0-4h0a3.37 3.37 0 0 0-.2-4.24m3.35 4.72a3.37 3.37 0 0 0 0-4l-.15-.19a3.37 3.37 0 0 1 0-4h0" fill="none" stroke="#2a4d8e" stroke-linecap="round" stroke-linejoin="round" opacity=".11"/><path fill="none" stroke="#c8e8de" stroke-linecap="round" stroke-linejoin="round" stroke-width="2" d="M102.69 41.62v6.78"/><path fill="none" stroke="#e3d1ed" stroke-linecap="round" stroke-linejoin="round" stroke-width="2" d="M110.42 34.85V48.4"/><path fill="none" stroke="#d4dce8" stroke-linecap="round" stroke-linejoin="round" stroke-width="2" d="M118.15 38.39V48.4"/><path fill="none" stroke="#f9c7c0" stroke-linecap="round" stroke-linejoin="round" stroke-width="2" d="M125.88 30.7v17.7"/><path fill="none" stroke="#dbdbdb" stroke-linecap="round" stroke-linejoin="round" stroke-width="2" d="M141.34 26.7v21.7"/><path fill="none" stroke="#c2e6ef" stroke-linecap="round" stroke-linejoin="round" stroke-width="2" d="M133.61 32.79V48.4"/><ellipse cx="20.51" cy="86.79" rx="15.73" ry="1.79" fill="#2a4d8e" opacity=".08"/></svg>