<svg data-name="Layer 1" xmlns="http://www.w3.org/2000/svg" viewBox="0 0 160 90"><path d="M9.2 61.22l6.91-3a7.56 7.56 0 1 0 0 5.92z" fill="#fcf3c0"/><path d="M9.2 61.22l6.91-3a7.56 7.56 0 1 0 0 5.92z" fill="none" stroke="#9aa8c1" stroke-linecap="round" stroke-linejoin="round"/><circle cx="20.69" cy="61.22" r="1" fill="#9aa8c1"/><circle cx="140.57" cy="61.22" r="1" fill="#9aa8c1"/><circle cx="148.57" cy="61.22" r="1" fill="#9aa8c1"/><circle cx="156.57" cy="61.22" r="1" fill="#9aa8c1"/><ellipse cx="80" cy="83.1" rx="63.88" ry="4.44" fill="#2a4d8e" opacity=".08"/><rect x="24.3" y="9.7" width="111.41" height="73.4" rx="3" ry="3" fill="#d4dce8"/><path d="M132.79 9.7H27.21a2.91 2.91 0 0 0-2.91 2.91v5.63h111.4v-5.63a2.91 2.91 0 0 0-2.91-2.91z" fill="#fff"/><rect x="24.3" y="9.7" width="111.41" height="73.4" rx="3" ry="3" fill="none" stroke="#9aa8c1" stroke-linecap="round" stroke-linejoin="round"/><path fill="none" stroke="#9aa8c1" stroke-linecap="round" stroke-linejoin="round" d="M24.3 18.24h111.4"/><circle cx="29.17" cy="13.97" r="1.11" fill="#9aa8c1"/><circle cx="33.14" cy="13.97" r="1.11" fill="#9aa8c1"/><circle cx="37.11" cy="13.97" r="1.11" fill="#9aa8c1"/><path fill="none" stroke="#f9c7c0" stroke-linecap="round" stroke-linejoin="round" stroke-width="2" d="M31.42 28.16h3.65m51.81 0h3.65"/><path fill="none" stroke="#fff" stroke-linecap="round" stroke-linejoin="round" stroke-width="2" d="M40.21 28.16h41.33"/><path fill="none" stroke="#f9c7c0" stroke-linecap="round" stroke-linejoin="round" stroke-width="2" d="M31.42 57.26h3.65m23.98 0h3.65"/><path fill="none" stroke="#fff" stroke-linecap="round" stroke-linejoin="round" stroke-width="2" d="M40.21 57.26h13.92m-22.71 5.82h3.65m5.14 0h41.33"/><path fill="none" stroke="#fcf3c0" stroke-linecap="round" stroke-linejoin="round" stroke-width="2" d="M35.81 33.98h3.65"/><path fill="none" stroke="#c8e8de" stroke-linecap="round" stroke-linejoin="round" stroke-width="2" d="M44.61 33.98h28.48"/><path fill="none" stroke="#f9ece8" stroke-linecap="round" stroke-linejoin="round" stroke-width="2" d="M79.11 33.98h43"/><path fill="none" stroke="#fcf3c0" stroke-linecap="round" stroke-linejoin="round" stroke-width="2" d="M35.81 39.8h3.65m71.66 0h3.65"/><path fill="none" stroke="#fff" stroke-linecap="round" stroke-linejoin="round" stroke-width="2" d="M44.61 39.8h61.66"/><path fill="none" stroke="#c8e8de" stroke-linecap="round" stroke-linejoin="round" stroke-width="2" d="M35.81 45.62h3.65"/><path fill="none" stroke="#fff" stroke-linecap="round" stroke-linejoin="round" stroke-width="2" d="M44.61 45.62h46.3"/><path fill="none" stroke="#f9ece8" stroke-linecap="round" stroke-linejoin="round" stroke-width="2" d="M35.81 68.9h3.65"/><path fill="none" stroke="#fff" stroke-linecap="round" stroke-linejoin="round" stroke-width="2" d="M44.61 68.9h46.3"/><path fill="none" stroke="#fcf3c0" stroke-linecap="round" stroke-linejoin="round" stroke-width="2" d="M35.81 74.72h3.65"/><path fill="none" stroke="#fff" stroke-linecap="round" stroke-linejoin="round" stroke-width="2" d="M44.61 74.72h46.3"/><path fill="none" stroke="#f9c7c0" stroke-linecap="round" stroke-linejoin="round" stroke-width="2" d="M35.81 51.44h3.65m64.98 0h3.65"/><path fill="none" stroke="#fff" stroke-linecap="round" stroke-linejoin="round" stroke-width="2" d="M44.61 51.44h54.8"/></svg>